<svg xmlns="http://www.w3.org/2000/svg" xml:space="preserve" id="svg1" version="1.1" viewBox="1.7796610169491525 113.927418 207.6271186440678 32.67" style="max-height: 500px" width="207.6271186440678" height="32.67"><defs id="defs1"/><g id="layer1"><path transform="scale(0.26458333)" id="path130" d="" style="fill: rgb(0, 128, 0); stroke-width: 0.125; --darkreader-inline-fill: #72ff72;" data-darkreader-inline-fill=""/><g id="g100" stroke="none" fill="#626262" transform="matrix(0.00579675,0,0,-0.00579675,1.5658998,146.44781)" data-darkreader-inline-fill="" data-darkreader-inline-stroke="" style="--darkreader-inline-fill: #626262; --darkreader-inline-stroke: none;"><path id="path1" d="m 35416,5613 c -16,-125 -32,-248 -61,-483 -23,-182 -44,-350 -61,-482 -8,-68 -22,-172 -29,-233 -8,-60 -21,-166 -30,-235 -9,-69 -23,-172 -30,-230 -8,-58 -15,-117 -15,-131 0,-14 -6,-32 -12,-41 -13,-16 -28,-15 -258,17 -19,2 -89,11 -155,20 -66,8 -174,22 -240,30 -470,61 -521,64 -645,29 -126,-36 -262,-139 -340,-257 -68,-104 -85,-176 -140,-615 -28,-218 -58,-449 -66,-512 -8,-63 -23,-185 -34,-270 -10,-85 -26,-207 -34,-270 -72,-554 -96,-756 -96,-820 1,-275 178,-507 450,-589 31,-10 175,-29 541,-75 59,-7 112,-16 117,-20 6,-4 26,-35 44,-69 40,-75 140,-183 216,-233 162,-108 382,-137 569,-74 209,69 371,244 428,460 27,102 23,255 -9,355 -48,152 -159,293 -291,370 -36,21 -65,41 -65,46 0,4 4,41 10,81 5,40 16,129 25,198 9,69 22,175 30,235 8,61 21,162 29,225 9,63 22,169 31,235 14,109 44,354 80,650 8,61 28,218 45,350 17,132 35,276 40,320 17,143 38,317 60,475 11,85 31,252 45,370 14,118 29,249 35,290 9,71 21,171 55,438 32,259 45,361 56,445 6,48 10,90 8,92 -6,5 -228,35 -260,35 -26,0 -26,-1 -43,-127 z M 34217,3599 c 57,-7 104,-18 107,-25 2,-6 -18,-173 -44,-370 -27,-197 -56,-413 -65,-479 -19,-137 -37,-268 -60,-438 -10,-65 -14,-133 -11,-152 20,-103 146,-146 227,-77 40,33 48,56 64,187 8,61 21,160 29,220 120,880 147,1070 154,1076 4,4 34,3 67,-1 33,-4 137,-17 230,-29 94,-12 183,-24 198,-27 l 29,-6 -7,-71 c -3,-40 -13,-119 -21,-177 -7,-58 -23,-179 -34,-270 -11,-91 -36,-289 -56,-440 -19,-151 -39,-309 -44,-350 -8,-71 -41,-353 -59,-505 -5,-38 -14,-117 -21,-175 -6,-58 -15,-112 -19,-120 -5,-8 -23,-18 -42,-21 -122,-25 -150,-33 -204,-57 -149,-67 -254,-169 -325,-317 -22,-44 -46,-111 -54,-148 -8,-38 -18,-73 -22,-77 -12,-11 -519,56 -572,76 -72,27 -137,86 -172,157 -42,86 -46,142 -21,327 11,85 41,317 66,515 25,198 52,410 60,470 70,543 89,696 111,870 29,227 48,286 117,353 71,69 174,107 262,97 17,-2 76,-9 132,-16 z m 806,-2556 c 50,-16 123,-65 163,-111 12,-15 35,-52 51,-82 25,-49 28,-65 28,-155 0,-93 -2,-105 -32,-166 -63,-127 -176,-201 -318,-207 -97,-4 -159,15 -238,72 -97,70 -148,172 -148,296 -1,263 238,434 494,353 z"/><path id="path2" d="m 34841,813 c -132,-69 -84,-263 66,-263 37,0 50,6 84,38 33,31 42,46 46,83 13,114 -98,194 -196,142 z"/><path id="path3" d="m 15410,5202 c 0,-40 22,-331 26,-344 3,-11 15,-18 30,-18 24,0 24,1 24,93 0,52 3,135 6,185 l 7,92 h -47 c -25,0 -46,-3 -46,-8 z"/><path id="path4" d="m 15585,5185 c -3,-11 -9,-76 -15,-145 -6,-69 -13,-142 -16,-162 -6,-37 -5,-38 24,-38 h 29 l 32,163 c 17,89 31,169 31,178 0,12 -11,18 -40,21 -34,3 -41,0 -45,-17 z"/><path id="path5" d="m 15272,5193 c -32,-6 -35,-22 -19,-89 8,-33 25,-108 38,-167 22,-105 24,-108 48,-105 24,3 26,6 24,53 -1,44 -26,228 -39,293 -4,22 -9,23 -52,15 z"/><path id="path6" d="m 15760,5148 c -33,-83 -100,-322 -92,-330 23,-23 45,1 93,107 28,61 59,128 70,151 25,53 24,61 -11,79 -39,20 -49,19 -60,-7 z"/><path id="path7" d="m 15098,5145 -26,-15 40,-107 c 35,-97 49,-133 79,-210 8,-20 11,-22 34,-11 31,14 31,10 -29,213 -44,148 -50,156 -98,130 z"/><path id="path8" d="m 14943,5080 -32,-19 72,-128 c 40,-71 78,-141 86,-156 16,-30 23,-32 51,-17 18,10 18,14 -14,88 -65,148 -115,252 -123,252 -4,0 -22,-9 -40,-20 z"/><path id="path9" d="m 15843,4932 c -69,-110 -89,-149 -81,-159 6,-7 14,-13 18,-13 6,0 137,145 229,253 14,17 13,20 -14,42 -17,13 -37,24 -45,24 -8,0 -56,-65 -107,-147 z"/><path id="path10" d="m 14796,4989 c -14,-11 -26,-25 -26,-30 0,-5 48,-67 106,-137 74,-88 113,-127 128,-127 11,0 22,7 24,16 3,16 -183,299 -197,299 -5,0 -20,-9 -35,-21 z"/><path id="path11" d="m 15984,4862 c -55,-48 -115,-98 -133,-112 -23,-18 -30,-30 -26,-42 4,-10 12,-18 17,-18 10,0 254,147 292,175 19,14 18,15 -5,50 -13,19 -28,35 -34,34 -5,0 -55,-39 -111,-87 z"/><path id="path12" d="m 14668,4873 c -48,-55 -48,-55 85,-145 185,-126 178,-122 188,-107 5,8 9,17 9,20 0,9 -250,249 -259,249 -5,0 -15,-8 -23,-17 z"/><path id="path13" d="m 16035,4717 c -77,-34 -146,-66 -152,-70 -18,-11 -16,-36 3,-44 12,-4 327,81 343,94 2,1 -2,21 -9,43 -8,25 -19,40 -29,39 -9,0 -79,-29 -156,-62 z"/><path id="path14" d="m 4020,4695 c -232,-42 -401,-98 -604,-202 -449,-229 -807,-626 -991,-1098 -97,-251 -137,-465 -138,-740 -1,-277 32,-453 138,-755 32,-89 126,-274 188,-368 232,-353 525,-606 902,-778 160,-74 305,-118 515,-156 165,-31 495,-31 660,0 349,64 681,209 938,409 549,428 848,1092 801,1778 -28,410 -186,822 -435,1137 -338,425 -799,694 -1334,778 -182,29 -469,27 -640,-5 z m 549,-91 54,-7 -7,-70 c -3,-38 -10,-76 -14,-83 -6,-11 -46,5 -182,72 -132,65 -171,88 -160,95 16,10 211,6 309,-7 z m -433,-75 c 49,-23 171,-81 272,-130 165,-80 182,-90 182,-113 0,-35 -40,-60 -83,-52 -55,10 -629,293 -631,311 -1,14 92,35 135,30 19,-3 76,-23 125,-46 z m 744,16 c 168,-45 380,-140 536,-240 56,-36 56,-36 50,-77 -17,-104 -96,-224 -208,-316 -30,-24 -35,-53 -17,-99 22,-54 28,-68 48,-117 12,-27 21,-66 21,-86 0,-33 -7,-44 -55,-88 -52,-47 -117,-90 -209,-137 -58,-30 -65,-46 -38,-100 l 22,-46 -26,-9 c -14,-6 -36,-10 -48,-10 -47,0 -61,-33 -61,-139 0,-92 2,-101 32,-149 l 32,-51 -24,-95 c -66,-268 -142,-471 -226,-604 -18,-27 -19,-37 -10,-64 27,-78 134,-171 254,-220 63,-26 88,-31 199,-35 75,-4 132,-10 137,-17 17,-20 50,-209 61,-348 21,-242 -9,-474 -73,-572 -34,-52 -268,-145 -487,-194 -317,-70 -596,-65 -940,20 -117,28 -109,23 -98,71 26,116 135,243 234,272 94,27 165,108 198,227 9,32 23,84 32,115 9,32 29,74 44,93 42,54 49,72 39,92 -5,9 -54,40 -109,69 -120,61 -180,113 -272,236 -83,110 -149,170 -232,211 -110,53 -246,66 -376,36 -119,-28 -152,-28 -183,-4 -42,33 -59,75 -64,164 -6,85 -22,126 -51,126 -9,0 -42,-16 -72,-35 -78,-50 -110,-44 -110,22 0,83 81,157 169,154 38,-1 104,-36 140,-75 26,-28 71,-35 89,-13 5,6 20,46 33,87 57,189 157,341 318,483 74,65 113,90 256,162 146,74 148,79 82,187 -81,135 -101,197 -105,330 -3,100 0,128 18,183 13,40 19,73 14,87 -4,13 -46,64 -95,115 -88,93 -200,233 -212,266 -6,15 4,23 50,44 32,13 76,25 98,25 73,1 197,-77 228,-145 8,-17 18,-66 21,-107 21,-236 57,-340 150,-438 53,-56 87,-76 115,-67 9,2 34,40 56,82 59,114 199,253 315,312 132,66 124,53 140,250 6,68 15,141 20,163 13,47 20,47 150,13 z M 3444,4345 c 9,-13 16,-26 16,-29 0,-7 -130,-19 -136,-13 -7,7 75,67 91,67 7,0 20,-11 29,-25 z m 780,-106 c 88,-44 165,-84 169,-88 5,-5 -12,-26 -38,-46 l -46,-38 -117,58 c -64,33 -125,66 -134,74 -25,20 -25,121 0,121 2,0 77,-36 166,-81 z m -642,-76 c 15,-15 28,-30 28,-35 0,-4 -121,-8 -270,-8 -148,0 -270,3 -270,8 1,4 17,19 37,35 l 36,27 h 206 205 z m 2081,-46 67,-62 -50,-55 c -93,-100 -264,-270 -273,-270 -4,0 -19,24 -32,54 l -24,54 51,53 c 72,76 118,152 158,262 5,15 15,27 22,27 7,0 43,-28 81,-63 z m -1509,-97 c 71,-38 75,-48 37,-104 -25,-36 -36,-45 -46,-36 -17,14 -64,114 -72,152 -6,33 -1,32 81,-12 z m -429,-19 c 3,-5 -2,-28 -11,-50 l -16,-41 h -414 c -460,0 -447,-2 -374,64 l 40,36 h 384 c 228,0 387,-4 391,-9 z m 2134,-78 c 17,-21 31,-40 31,-43 0,-4 -193,-201 -428,-440 -274,-277 -433,-431 -442,-428 -10,3 -16,21 -18,51 l -3,46 51,22 c 69,29 90,59 90,123 0,50 1,52 43,75 59,33 160,116 194,160 16,20 42,58 57,84 29,52 361,387 382,387 7,0 26,-17 43,-37 z M 3690,3755 v -45 h -478 c -263,0 -482,3 -485,6 -4,4 3,24 15,45 l 22,39 h 463 463 z m 2304,-16 c 14,-17 26,-36 26,-42 0,-6 -93,-106 -208,-222 -114,-115 -322,-327 -462,-470 -267,-272 -307,-311 -316,-302 -3,3 5,46 18,97 l 22,91 434,440 c 239,241 440,439 447,439 7,0 25,-14 39,-31 z M 3713,3590 c 4,-3 16,-29 27,-57 17,-45 17,-52 4,-57 -20,-8 -1128,-8 -1148,0 -13,5 -10,16 16,69 l 32,64 530,-6 c 292,-3 535,-9 539,-13 z m 2409,-70 c 16,-29 27,-57 26,-61 -2,-4 -84,-90 -183,-191 -208,-211 -798,-817 -966,-992 -116,-120 -165,-163 -176,-152 -3,3 17,54 44,113 28,60 56,126 63,147 7,22 39,68 73,105 150,163 1071,1091 1080,1088 5,-1 23,-27 39,-57 z M 3773,3353 c 4,-3 -21,-21 -56,-39 l -62,-33 -577,-1 c -318,0 -578,2 -578,4 0,2 7,20 15,40 l 15,36 h 618 c 340,0 622,-3 625,-7 z m 2451,-81 20,-61 -49,-53 c -115,-124 -744,-777 -900,-934 -183,-184 -242,-234 -273,-234 -21,0 -82,29 -93,43 -6,9 112,133 586,617 355,362 497,509 585,603 46,48 88,86 94,84 6,-2 19,-31 30,-65 z m -2784,-157 -44,-45 h -478 c -263,0 -478,3 -478,8 0,4 5,24 11,45 l 10,37 h 512 511 z m 2849,-92 c 14,-53 16,-115 5,-135 -13,-24 -255,-280 -596,-630 l -288,-297 -93,6 c -50,3 -94,7 -96,9 -7,6 104,122 718,752 178,182 327,332 332,332 4,0 13,-17 18,-37 z m -3002,-71 c 9,-5 3,-21 -20,-57 -17,-28 -36,-53 -42,-57 -5,-4 -192,-7 -415,-5 l -405,2 2,40 c 2,22 5,50 8,63 l 5,22 h 428 c 235,0 432,-4 439,-8 z m -333,-230 c 3,-5 -15,-13 -39,-20 -25,-7 -68,-32 -104,-62 l -60,-50 h -160 c -88,0 -166,3 -175,6 -12,5 -16,21 -16,70 v 64 h 274 c 151,0 277,-4 280,-8 z m 222,-6 c 3,-8 1,-24 -5,-35 -11,-21 -11,-21 -67,4 -31,14 -68,25 -83,25 -20,0 -23,2 -11,10 25,16 160,13 166,-4 z m 3148,-42 c 16,-120 18,-115 -116,-253 -466,-477 -753,-760 -759,-749 -4,7 -12,39 -18,72 -10,56 -10,60 15,90 46,55 856,886 864,886 4,0 10,-21 14,-46 z M 2718,2418 c 5,-29 8,-56 5,-60 -2,-5 -49,-8 -103,-8 h -100 l -35,48 c -19,26 -35,53 -35,60 0,9 32,12 129,12 h 128 z m 3582,-92 c 0,-8 -7,-45 -16,-83 -18,-78 15,-41 -483,-550 -189,-193 -319,-319 -324,-314 -5,5 -6,38 -3,73 7,62 9,65 78,138 213,223 731,750 739,750 5,0 9,-6 9,-14 z m -3821,-95 c 20,-16 86,-56 147,-89 126,-68 274,-169 357,-245 l 58,-52 -27,-37 c -17,-24 -28,-55 -31,-85 -5,-61 17,-103 117,-220 105,-122 168,-207 185,-245 18,-45 45,-179 45,-228 0,-51 -11,-51 -85,1 -204,143 -389,332 -526,539 -103,155 -212,399 -259,577 -12,43 -23,86 -26,96 -7,24 3,21 45,-12 z m 461,6 c 16,-8 26,-23 28,-39 3,-22 -2,-29 -23,-34 -62,-16 -169,11 -218,54 -18,16 -18,17 0,23 31,13 186,10 213,-4 z m 585,-158 c 55,-10 148,-51 188,-82 43,-35 24,-37 -310,-37 h -328 l -42,41 c -24,22 -43,42 -43,45 0,2 62,3 138,2 104,-1 149,2 187,15 88,28 127,31 210,16 z m 2597,-298 c -112,-223 -213,-361 -393,-536 -128,-125 -274,-243 -286,-231 -3,3 -1,29 5,57 7,28 12,61 12,74 0,15 19,46 46,77 120,136 664,691 671,684 3,-3 -22,-59 -55,-125 z m -2252,19 c 26,-30 46,-58 43,-62 -5,-9 -797,-11 -806,-2 -3,3 7,17 22,30 16,13 32,36 36,51 3,15 12,31 18,36 7,4 153,6 325,5 l 314,-3 z m 211,-190 c 52,-15 65,-32 49,-70 l -12,-30 h -439 -438 l -35,44 c -41,49 -42,53 -18,59 36,10 858,7 893,-3 z m 5,-223 c 2,-7 -1,-31 -8,-53 l -13,-39 -335,-2 -335,-3 -28,46 c -15,25 -25,50 -22,55 4,5 159,9 371,9 292,0 366,-3 370,-13 z m -266,-256 c -63,-56 -82,-61 -225,-60 -146,2 -158,6 -166,54 -4,22 -5,43 -2,48 2,4 104,7 226,7 h 222 z M 3667,952 c 15,-10 -26,-116 -47,-119 -8,-2 -49,14 -90,35 -63,31 -75,41 -78,65 l -3,27 h 103 c 57,0 108,-4 115,-8 z"/><path id="path15" d="m 14558,4686 c -6,-14 -8,-31 -6,-38 3,-7 79,-40 168,-72 156,-57 163,-59 176,-41 17,23 17,30 2,43 -19,14 -297,132 -314,132 -8,0 -19,-11 -26,-24 z"/><path id="path16" d="m 16199,4596 c -2,-2 -49,-11 -104,-21 -188,-31 -195,-34 -195,-62 v -25 l 88,7 c 48,4 128,11 177,14 l 90,6 3,43 c 3,40 2,42 -26,42 -16,0 -31,-2 -33,-4 z"/><path id="path17" d="m 14510,4534 c -19,-48 -10,-57 70,-76 162,-38 263,-57 271,-52 5,3 9,16 9,29 0,25 16,19 -240,96 -36,11 -73,22 -82,25 -13,4 -21,-3 -28,-22 z"/><path id="path18" d="m 10300,4500 c -102,-3 -186,-7 -187,-8 -2,-1 -4,-158 -5,-349 l -3,-348 h -230 -230 l -3,-194 -2,-194 234,7 235,6 4,-902 c 4,-942 6,-997 51,-1203 62,-291 207,-478 436,-562 121,-45 203,-56 395,-56 105,0 228,5 275,12 80,12 281,54 313,66 11,5 15,44 20,203 3,108 4,198 2,200 -2,2 -41,-8 -86,-22 -159,-48 -242,-60 -429,-61 -175,0 -175,0 -234,30 -103,52 -172,158 -213,328 -15,65 -17,160 -20,1011 -2,517 0,943 5,948 4,4 230,4 502,-2 271,-6 497,-7 501,-3 3,5 9,94 12,200 l 7,192 -517,-6 -516,-6 4,359 4,359 -70,1 c -38,0 -153,-3 -255,-6 z"/><path id="path19" d="M 57,2593 58,735 h 1144 1143 l 7,75 c 4,41 11,137 15,213 l 8,139 -845,-8 c -465,-5 -867,-8 -895,-9 h -50 l -8,230 c -4,127 -6,870 -5,1653 l 3,1422 H 315 55 Z"/><path id="path20" d="m 20094,4133 c 23,-1178 27,-1665 17,-2223 -7,-322 -13,-718 -14,-880 l -2,-295 h 260 260 v 825 824 l 988,-3 987,-3 -2,198 -3,199 -987,-4 -988,-3 v 646 646 l 1053,2 1052,3 3,193 2,192 h -1316 -1316 z"/><path id="path21" d="m 15900,4395 c 0,-30 6,-32 170,-41 214,-12 195,-15 198,29 l 3,37 h -185 -186 z"/><path id="path22" d="m 14475,4350 c -4,-23 -5,-43 -3,-45 2,-2 86,-7 186,-11 l 182,-7 v 26 c 0,31 2,31 -170,52 -69,9 -139,18 -156,21 -31,6 -32,4 -39,-36 z"/><path id="path23" d="m 15892,4269 c 3,-38 -6,-34 203,-73 146,-26 147,-26 157,13 5,18 6,37 1,41 -7,7 -172,31 -316,47 l -48,6 z"/><path id="path24" d="m 14555,4213 c -38,-2 -74,-8 -79,-13 -4,-4 -5,-23 -1,-40 l 7,-33 62,6 c 114,12 241,27 269,33 20,4 27,11 27,30 v 24 l -107,-2 c -60,-1 -139,-4 -178,-5 z"/><path id="path25" d="m 15864,4145 c -4,-14 -4,-28 -1,-31 5,-5 326,-104 338,-104 6,0 30,72 25,77 -2,3 -342,83 -351,83 -3,0 -7,-11 -11,-25 z"/><path id="path26" d="m 14720,4083 c -63,-13 -139,-28 -167,-34 -48,-9 -53,-13 -53,-37 0,-48 12,-56 66,-43 56,12 273,69 290,75 14,5 6,53 -10,58 -6,3 -63,-6 -126,-19 z"/><path id="path27" d="m 15831,4036 c -28,-33 -8,-49 154,-117 145,-61 161,-66 173,-52 15,21 16,73 1,73 -8,0 -232,78 -300,105 -9,3 -21,-1 -28,-9 z"/><path id="path28" d="m 14785,3954 c -44,-13 -117,-36 -163,-51 l -83,-27 7,-30 c 4,-17 11,-34 17,-38 6,-3 54,9 106,28 53,20 123,45 156,56 74,25 79,30 71,62 -8,31 -10,31 -111,0 z"/><path id="path29" d="m 15771,3903 c -14,-30 -21,-24 99,-89 41,-22 105,-57 142,-78 l 67,-37 15,30 c 9,16 16,34 16,39 0,9 -302,162 -319,162 -4,0 -13,-12 -20,-27 z"/><path id="path30" d="m 7855,3854 c -138,-15 -357,-73 -480,-128 -94,-42 -247,-149 -310,-218 -142,-153 -195,-288 -195,-498 1,-414 185,-662 596,-803 190,-66 351,-98 714,-142 405,-48 598,-125 675,-266 25,-46 29,-66 33,-154 5,-120 -8,-198 -48,-283 -62,-133 -141,-194 -331,-256 -127,-42 -194,-50 -379,-49 -216,1 -308,20 -455,93 -115,57 -226,151 -300,254 -38,54 -94,163 -134,260 -12,28 -13,29 -74,23 -260,-25 -393,-40 -399,-46 -10,-9 28,-145 69,-241 78,-186 188,-335 328,-446 85,-68 212,-145 270,-163 17,-6 55,-19 86,-29 165,-58 333,-82 572,-82 533,0 927,164 1135,472 93,136 134,342 113,555 -26,264 -112,405 -319,527 -170,99 -393,156 -877,221 -333,45 -566,122 -676,223 -74,68 -101,129 -107,242 -10,208 91,402 248,473 226,103 547,121 797,46 138,-41 270,-128 356,-235 62,-77 137,-231 178,-368 l 33,-108 61,6 c 79,9 344,45 374,52 22,5 23,8 16,52 -3,26 -17,88 -31,139 -125,477 -412,748 -903,854 -79,17 -140,21 -346,24 -137,1 -268,1 -290,-1 z"/><path id="path31" d="m 24405,3854 c -139,-15 -279,-54 -420,-116 -283,-125 -482,-326 -624,-631 -111,-238 -165,-506 -164,-823 1,-291 30,-492 102,-712 68,-207 153,-352 291,-495 177,-185 335,-276 603,-347 146,-38 248,-50 432,-50 222,0 373,23 562,87 210,70 410,207 549,378 167,204 263,443 316,785 17,111 17,503 -1,630 -21,154 -47,269 -91,399 -155,464 -491,766 -970,872 -77,16 -138,21 -320,24 -124,1 -243,1 -265,-1 z m 366,-383 c 179,-38 255,-69 374,-157 272,-201 408,-561 407,-1079 0,-357 -74,-653 -226,-904 -49,-81 -113,-134 -221,-186 -148,-72 -232,-89 -420,-88 -224,2 -356,34 -507,123 -216,129 -362,360 -428,677 -82,393 -23,960 133,1268 61,122 239,264 395,316 151,50 340,61 493,30 z"/><path id="path32" d="m 14800,3809 c -52,-22 -119,-49 -147,-60 -53,-21 -57,-26 -47,-66 8,-30 24,-34 64,-14 19,9 90,41 158,71 109,47 123,56 118,74 -3,12 -6,24 -6,29 0,16 -49,4 -140,-34 z"/><path id="path33" d="m 31575,3830 c -202,-43 -349,-111 -527,-242 -136,-100 -309,-308 -384,-460 -25,-51 -48,-70 -65,-53 -3,2 -1,44 3,92 9,111 46,501 55,571 l 6,52 h -272 -271 l 7,-97 c 10,-132 10,-2327 0,-2680 l -8,-283 h 272 271 l -6,97 c -3,54 -9,464 -12,910 -7,890 -10,845 53,981 103,221 289,445 475,568 313,208 648,216 844,20 94,-95 148,-210 184,-396 36,-187 42,-383 38,-1300 l -3,-875 263,-3 264,-2 -6,297 c -3,164 -8,582 -11,928 -7,779 -19,978 -69,1196 -35,149 -102,305 -172,401 -92,125 -246,226 -409,269 -118,31 -394,36 -520,9 z"/><path id="path34" d="m 15707,3793 c -11,-13 -17,-26 -15,-27 64,-51 293,-196 304,-192 14,5 41,53 33,60 -3,3 -283,172 -299,181 -3,2 -13,-8 -23,-22 z"/><path id="path35" d="m 26657,3283 c 9,-1005 22,-1583 37,-1703 58,-453 192,-698 450,-824 132,-65 216,-81 416,-81 182,0 256,11 395,57 269,91 497,252 653,461 76,103 103,145 139,218 17,36 29,49 41,47 24,-5 22,-51 -28,-561 -6,-54 -10,-113 -10,-132 v -35 h 265 265 l -8,318 c -10,427 -9,2019 1,2420 l 9,322 -268,-2 -267,-3 4,-150 c 2,-82 4,-508 4,-945 v -795 l -33,-70 c -138,-287 -370,-534 -618,-658 -165,-83 -283,-107 -426,-87 -191,26 -308,111 -392,285 -79,163 -103,306 -117,690 -11,293 -6,1223 8,1573 l 6,162 h -266 -265 z"/><path id="path36" d="m 14840,3669 c -170,-80 -176,-84 -172,-111 7,-56 20,-54 178,28 82,42 153,80 158,85 12,11 -9,59 -26,58 -7,0 -69,-27 -138,-60 z"/><path id="path37" d="m 15637,3692 c -10,-10 -17,-24 -17,-30 0,-6 62,-61 138,-121 l 137,-111 23,26 c 12,14 22,29 22,33 0,7 -106,88 -276,213 -6,5 -18,0 -27,-10 z"/><path id="path38" d="m 14995,3586 c -22,-12 -89,-48 -150,-80 -60,-32 -112,-60 -114,-62 -3,-2 3,-20 12,-40 l 17,-35 48,27 c 26,15 61,35 77,44 17,10 62,35 100,55 99,53 97,52 79,86 -17,34 -18,34 -69,5 z"/><path id="path39" d="m 15541,3578 c -13,-21 -8,-27 100,-129 63,-59 124,-113 137,-120 20,-11 25,-10 40,12 9,13 17,27 17,32 0,11 -256,227 -269,227 -6,0 -17,-10 -25,-22 z"/><path id="path40" d="m 15445,3480 c -19,-21 -18,-22 111,-151 l 130,-130 22,21 c 12,11 22,24 22,29 0,11 -238,245 -253,249 -7,1 -22,-7 -32,-18 z"/><path id="path41" d="m 15070,3463 c -122,-68 -260,-155 -260,-164 0,-16 20,-49 29,-49 7,0 233,127 300,169 12,7 11,13 -5,39 l -19,30 z"/><path id="path42" d="m 15345,3380 c -17,-19 -16,-21 48,-92 168,-188 174,-194 193,-182 44,26 41,39 -27,111 -36,37 -89,94 -119,126 -29,31 -58,57 -65,57 -7,0 -20,-9 -30,-20 z"/><path id="path43" d="m 15060,3287 c -175,-109 -182,-115 -169,-138 6,-11 16,-22 23,-25 13,-5 306,171 306,184 0,12 -30,52 -38,51 -4,0 -59,-33 -122,-72 z"/><path id="path44" d="m 16965,3284 c -148,-58 -138,-42 -88,-139 l 43,-83 -85,-33 c -47,-17 -88,-36 -91,-41 -5,-7 87,-191 107,-212 4,-5 42,5 89,23 45,18 87,31 94,28 7,-3 29,-37 50,-76 20,-38 41,-73 46,-76 9,-6 219,70 233,84 4,4 -11,42 -33,84 -23,42 -39,80 -36,85 3,5 34,19 68,31 123,43 117,25 52,151 -32,60 -63,110 -70,110 -7,0 -48,-13 -91,-30 -42,-16 -81,-30 -84,-30 -4,0 -26,36 -48,80 -23,44 -47,80 -54,80 -7,-1 -52,-17 -102,-36 z m 125,-142 c 40,-77 48,-79 140,-42 90,36 87,36 110,-9 11,-23 19,-45 16,-49 -3,-5 -39,-21 -82,-38 -42,-16 -79,-34 -81,-40 -2,-7 12,-41 31,-77 20,-36 36,-70 36,-77 0,-6 -21,-20 -46,-32 -53,-23 -47,-28 -100,75 -19,37 -41,67 -49,67 -8,0 -49,-14 -90,-30 -42,-17 -81,-28 -86,-24 -5,3 -18,23 -29,45 l -21,39 28,11 c 16,6 53,20 83,31 30,11 59,24 64,28 4,5 -11,43 -34,85 -46,84 -45,89 16,110 46,16 47,15 94,-73 z"/><path id="path45" d="m 15246,3291 c -11,-12 -15,-27 -11,-40 7,-24 -26,-45 -60,-37 -26,7 -61,-25 -52,-48 4,-10 -9,-20 -42,-35 -27,-11 -65,-35 -84,-52 -35,-31 -36,-32 -21,-61 11,-22 20,-28 32,-23 42,18 51,16 68,-10 17,-27 17,-27 -7,-46 -13,-10 -27,-19 -31,-19 -3,0 -21,19 -40,43 -52,66 -59,70 -87,42 l -24,-24 54,-63 c 30,-35 81,-96 113,-135 32,-40 62,-73 66,-73 4,0 61,36 126,81 66,44 140,95 166,112 53,35 56,45 30,77 -15,19 -21,20 -44,9 -25,-11 -29,-9 -47,12 l -20,24 27,26 27,26 33,-39 c 38,-43 51,-46 77,-18 16,18 16,22 4,38 -76,90 -222,252 -228,252 -4,0 -16,-9 -25,-19 z m 79,-143 c 14,-21 14,-24 -7,-40 -31,-24 -43,-22 -62,7 -15,23 -15,25 6,40 30,21 44,19 63,-7 z m -133,-75 c 25,-22 23,-37 -7,-53 -22,-12 -27,-11 -45,5 -25,22 -25,34 -2,51 23,18 32,17 54,-3 z m 102,-118 c 16,-25 16,-27 -6,-45 -30,-25 -39,-24 -62,7 -19,26 -19,26 3,45 31,24 46,23 65,-7 z m -124,-86 c 12,-16 21,-31 19,-32 -2,-2 -16,-9 -31,-16 -25,-13 -29,-12 -47,10 -26,31 -26,35 1,53 30,21 33,21 58,-15 z"/><path id="path46" d="m 14796,2911 c -10,-11 -16,-24 -15,-30 2,-5 49,-62 104,-127 55,-64 105,-124 111,-132 9,-12 15,-10 40,11 27,23 28,26 13,44 -163,191 -214,248 -224,251 -6,1 -19,-6 -29,-17 z"/><path id="path47" d="m 15450,2847 c -25,-18 -85,-62 -135,-97 -49,-35 -94,-66 -98,-71 -10,-8 20,-59 34,-59 8,0 62,37 222,153 37,27 67,55 67,61 0,12 -31,46 -41,46 -2,0 -24,-15 -49,-33 z"/><path id="path48" d="m 14681,2811 -24,-19 29,-34 c 91,-108 208,-238 214,-238 4,0 17,11 29,24 l 23,24 -89,99 c -48,54 -101,113 -117,130 -34,38 -34,38 -65,14 z"/><path id="path49" d="m 15442,2659 c -78,-56 -142,-106 -142,-111 0,-5 8,-21 19,-34 l 19,-24 146,106 c 80,58 146,107 146,110 0,9 -32,54 -39,54 -4,0 -71,-46 -149,-101 z"/><path id="path50" d="m 14570,2705 -24,-25 80,-83 c 44,-45 100,-103 124,-130 44,-46 46,-47 68,-31 13,9 22,22 20,30 -3,15 -227,264 -238,264 -3,0 -17,-11 -30,-25 z"/><path id="path51" d="m 16890,2682 c -283,-129 -340,-157 -338,-164 4,-11 581,-278 589,-272 7,4 -2,38 -78,308 -27,93 -53,171 -58,172 -6,2 -57,-18 -115,-44 z"/><path id="path52" d="m 15544,2554 c -161,-117 -161,-117 -144,-149 7,-14 17,-25 22,-25 16,0 288,202 288,214 -1,16 -25,46 -37,46 -6,0 -64,-39 -129,-86 z"/><path id="path53" d="m 14457,2602 c -10,-10 -17,-21 -17,-25 0,-3 57,-62 128,-131 l 127,-125 25,25 25,24 -125,125 c -69,69 -130,125 -136,125 -6,0 -18,-8 -27,-18 z"/><path id="path54" d="m 15613,2420 -142,-107 19,-31 c 11,-18 24,-32 30,-32 6,0 50,33 99,74 49,40 109,88 135,105 52,36 56,49 24,78 l -23,21 z"/><path id="path55" d="m 14351,2486 -22,-24 136,-122 c 132,-117 137,-121 156,-104 10,9 19,22 19,28 0,13 -245,246 -258,246 -5,0 -19,-11 -31,-24 z"/><path id="path56" d="m 15708,2303 c -135,-114 -137,-116 -121,-139 8,-13 21,-24 29,-24 17,0 272,211 273,226 1,6 -9,20 -21,31 l -23,21 z"/><path id="path57" d="m 14250,2373 -22,-28 34,-30 c 70,-62 230,-190 242,-193 16,-4 50,34 41,47 -6,11 -242,213 -262,224 -6,4 -21,-5 -33,-20 z"/><path id="path58" d="m 16651,2373 c -10,-21 -9,-29 1,-38 7,-6 80,-42 162,-80 141,-65 150,-67 162,-50 30,40 19,50 -140,124 -85,39 -158,71 -164,71 -5,0 -14,-12 -21,-27 z"/><path id="path59" d="m 15814,2199 c -162,-137 -149,-122 -129,-153 10,-14 20,-26 24,-26 3,0 31,22 62,48 31,26 93,78 138,115 l 81,68 -17,24 c -10,14 -23,25 -29,25 -6,0 -64,-45 -130,-101 z"/><path id="path60" d="m 14175,2272 c -6,-4 -18,-17 -28,-29 -19,-21 -18,-21 118,-123 76,-56 144,-104 152,-107 14,-5 42,22 43,42 0,6 -33,35 -72,65 -40,30 -95,73 -123,95 -76,62 -80,64 -90,57 z"/><path id="path61" d="m 16590,2245 c -5,-14 -10,-30 -10,-34 0,-4 72,-41 160,-83 160,-76 160,-76 175,-55 8,12 15,27 15,35 0,7 -64,44 -143,81 -187,89 -185,89 -197,56 z"/><path id="path62" d="m 15999,2162 c -83,-63 -229,-195 -229,-206 0,-7 9,-21 20,-31 19,-17 23,-15 137,81 65,55 126,106 137,115 19,16 19,18 3,43 -21,32 -23,32 -68,-2 z"/><path id="path63" d="m 14066,2125 c -9,-13 -16,-28 -16,-34 0,-5 67,-52 150,-104 149,-95 150,-96 165,-74 22,32 19,39 -33,73 -26,17 -90,61 -144,97 -53,37 -98,67 -101,67 -3,0 -12,-11 -21,-25 z"/><path id="path64" d="m 16526,2104 c -4,-15 -3,-30 1,-35 4,-4 76,-39 158,-77 156,-72 165,-74 179,-26 7,22 0,26 -149,94 -177,81 -180,82 -189,44 z"/><path id="path65" d="m 16030,1998 c -195,-166 -175,-144 -156,-173 9,-14 21,-25 27,-25 9,0 91,66 272,220 8,7 -29,60 -41,59 -4,0 -50,-37 -102,-81 z"/><path id="path66" d="m 13992,2007 c -41,-52 -43,-49 122,-141 84,-47 157,-86 163,-86 11,0 39,47 32,54 -3,3 -129,79 -300,182 -4,2 -11,-2 -17,-9 z"/><path id="path67" d="m 16465,1969 c -4,-17 -5,-32 -3,-33 1,-2 28,-15 58,-29 30,-14 99,-46 153,-72 74,-34 102,-43 112,-35 18,15 25,48 11,58 -18,14 -301,142 -313,142 -6,0 -14,-14 -18,-31 z"/><path id="path68" d="m 16150,1904 c -36,-31 -93,-79 -127,-106 -35,-27 -63,-56 -63,-63 0,-7 8,-23 18,-35 l 18,-22 81,68 c 44,38 105,89 136,114 31,25 56,50 57,56 0,13 -32,44 -46,44 -5,0 -38,-25 -74,-56 z"/><path id="path69" d="m 13905,1849 c -9,-17 -15,-32 -13,-34 2,-2 73,-38 158,-80 159,-79 181,-84 188,-39 2,12 -7,25 -25,35 -55,32 -281,149 -286,149 -4,0 -14,-14 -22,-31 z"/><path id="path70" d="m 16403,1840 c -13,-35 -12,-37 78,-79 37,-17 104,-48 150,-70 45,-22 86,-38 90,-35 4,2 12,17 17,33 l 10,28 -160,77 c -88,42 -163,76 -167,76 -3,0 -12,-13 -18,-30 z"/><path id="path71" d="m 16181,1739 c -72,-62 -131,-114 -131,-118 1,-3 10,-17 20,-30 18,-20 22,-22 37,-10 10,8 73,60 140,117 122,103 123,103 107,128 -9,13 -22,24 -29,24 -7,0 -72,-50 -144,-111 z"/><path id="path72" d="m 16383,1733 c -23,-3 -34,-12 -43,-33 -7,-16 -55,-66 -107,-111 l -95,-82 26,-25 25,-26 40,32 c 46,37 54,38 101,12 25,-14 30,-19 16,-20 -11,0 -28,-7 -38,-17 -15,-13 -22,-14 -44,-4 -15,6 -28,10 -29,9 -24,-30 -32,-78 -12,-78 8,0 22,-9 32,-20 10,-11 26,-20 36,-20 28,0 70,-22 64,-34 -3,-6 -8,-19 -11,-28 -8,-24 -17,-23 -91,12 -34,17 -67,30 -73,30 -5,0 -16,-14 -25,-30 l -16,-30 73,-33 c 40,-19 115,-53 165,-77 l 93,-43 47,39 c 42,34 185,157 221,189 11,10 9,17 -11,40 l -24,28 -44,-39 c -93,-82 -83,-78 -113,-51 l -26,24 23,21 c 13,12 31,22 40,22 10,0 22,11 27,24 5,13 17,29 27,35 14,8 16,14 7,27 -20,33 -41,40 -62,21 -19,-17 -21,-17 -56,0 l -37,17 33,27 32,27 50,-25 c 47,-24 50,-24 63,-7 26,35 16,51 -54,84 -133,62 -153,74 -168,97 -9,13 -19,22 -23,21 -4,0 -21,-3 -39,-5 z m 67,-121 23,-19 -30,-21 c -26,-19 -34,-20 -62,-9 -37,14 -39,22 -8,48 28,23 49,24 77,1 z m 19,-176 23,-13 -27,-21 c -21,-17 -31,-19 -52,-11 -42,16 -45,20 -27,40 20,22 49,24 83,5 z m 36,-177 c 7,-7 3,-16 -14,-30 -28,-23 -50,-24 -76,-5 -19,14 -19,14 0,36 15,17 27,20 49,16 17,-4 35,-11 41,-17 z"/><path id="path73" d="m 13838,1706 c -6,-14 -8,-31 -5,-38 4,-13 297,-128 323,-128 6,0 16,11 22,25 10,22 9,26 -16,39 -49,25 -291,126 -302,126 -6,0 -15,-11 -22,-24 z"/><path id="path74" d="m 13784,1535 c -3,-20 -4,-38 -1,-41 3,-3 36,-12 74,-20 222,-47 264,-55 273,-49 5,3 10,16 10,28 0,20 -17,27 -163,70 -89,26 -167,48 -174,47 -7,0 -15,-16 -19,-35 z"/><path id="path75" d="m 13757,1364 c -4,-20 -4,-41 -1,-46 3,-4 86,-8 185,-8 h 179 v 25 c 0,14 -4,25 -8,25 -4,0 -59,6 -122,14 -63,8 -140,17 -171,21 l -56,6 z"/><path id="path76" d="m 16658,1179 c -71,-61 -128,-116 -128,-123 0,-7 9,-21 19,-30 19,-18 24,-15 136,80 64,55 125,105 136,113 10,7 19,19 19,26 0,14 -32,45 -46,45 -5,-1 -66,-51 -136,-111 z"/><path id="path77" d="m 14050,1244 c -14,-2 -85,-8 -159,-15 l -133,-12 6,-40 c 4,-23 9,-43 12,-46 5,-5 59,5 204,36 151,32 152,32 148,56 -3,23 -24,28 -78,21 z"/><path id="path78" d="m 16096,1171 -15,-29 161,-81 c 88,-45 162,-81 164,-81 4,0 34,56 34,64 0,5 -41,25 -195,95 -49,23 -98,46 -107,51 -25,14 -26,13 -42,-19 z"/><path id="path79" d="m 16840,974 c -140,-123 -256,-229 -258,-236 -1,-7 22,-40 51,-73 l 54,-60 159,140 c 87,76 193,169 234,204 136,119 143,127 134,143 -18,31 -95,108 -107,107 -6,0 -127,-101 -267,-225 z"/><path id="path80" d="m 16755,1069 c -71,-61 -132,-116 -134,-121 -4,-11 28,-48 42,-48 10,0 61,42 199,163 l 78,68 -17,24 c -10,14 -22,24 -28,25 -5,0 -68,-50 -140,-111 z"/><path id="path81" d="m 13973,1091 c -89,-31 -164,-59 -168,-62 -8,-9 21,-79 33,-79 25,0 322,151 322,163 0,37 -26,34 -187,-22 z"/><path id="path82" d="m 16034,1064 c -15,-22 -15,-27 -3,-38 27,-25 276,-176 291,-176 14,0 46,46 37,53 -2,2 -60,39 -129,82 -69,43 -132,85 -141,92 -23,19 -37,16 -55,-13 z"/><path id="path83" d="m 14110,1007 c -36,-23 -103,-66 -148,-95 -88,-55 -88,-55 -47,-106 14,-18 21,-15 152,85 75,57 141,107 146,110 11,8 -13,49 -28,48 -5,0 -39,-19 -75,-42 z"/><path id="path84" d="m 14126,843 c -69,-64 -126,-122 -126,-128 0,-14 42,-55 56,-54 10,0 227,242 232,259 4,12 -16,40 -28,40 -5,0 -65,-53 -134,-117 z"/><path id="path85" d="m 15955,934 c -22,-33 -26,-30 154,-134 114,-66 145,-80 152,-69 19,28 31,51 27,54 -2,1 -39,23 -83,48 -44,25 -111,63 -150,86 -38,23 -73,41 -76,41 -4,0 -14,-12 -24,-26 z"/><path id="path86" d="m 14268,788 c -130,-164 -138,-176 -138,-189 1,-18 47,-52 60,-44 5,3 53,71 107,151 92,138 96,145 77,159 -10,8 -22,15 -26,15 -4,0 -40,-42 -80,-92 z"/><path id="path87" d="m 17126,848 c -3,-13 -8,-57 -13,-98 l -8,-75 -105,3 -106,3 -12,-127 c -6,-70 -10,-129 -7,-132 2,-2 46,-9 97,-15 51,-5 96,-12 100,-16 3,-3 2,-48 -3,-100 -5,-52 -7,-96 -6,-97 8,-8 259,-29 263,-22 3,5 9,49 14,99 5,50 11,93 14,96 2,3 46,0 98,-5 51,-6 96,-7 101,-3 9,9 26,140 27,207 0,59 6,56 -133,70 l -69,7 7,76 c 13,140 23,124 -80,137 -145,20 -174,18 -179,-8 z m 177,-169 -3,-107 83,-7 c 119,-9 117,-9 117,-63 0,-73 -3,-75 -108,-62 -50,6 -96,9 -100,6 -5,-3 -12,-43 -16,-88 -10,-119 -6,-114 -77,-110 l -61,4 6,61 c 4,34 9,81 12,104 7,49 12,46 -121,60 l -80,8 2,54 c 2,30 6,58 10,61 5,4 50,3 101,-2 51,-6 96,-8 99,-4 3,3 10,49 16,101 l 10,96 56,-3 56,-3 z"/><path id="path88" d="m 15885,813 c -5,-13 4,-27 32,-51 39,-34 219,-173 240,-185 13,-8 57,58 50,76 -5,13 -287,177 -304,177 -6,0 -14,-8 -18,-17 z"/><path id="path89" d="m 14417,768 c -14,-24 -37,-65 -51,-91 -15,-26 -43,-74 -62,-105 -18,-31 -34,-62 -34,-68 0,-6 15,-17 33,-26 l 32,-15 83,159 c 77,150 82,161 65,174 -29,21 -39,17 -66,-28 z"/><path id="path90" d="m 14564,752 c -6,-4 -13,-14 -17,-22 -3,-8 -35,-80 -71,-160 -65,-145 -65,-145 -43,-157 47,-26 52,-20 116,140 33,85 61,161 61,170 0,19 -31,39 -46,29 z"/><path id="path91" d="m 15822,747 c -9,-10 13,-50 90,-165 l 101,-152 31,24 c 17,13 31,30 31,39 0,16 -221,267 -235,267 -4,0 -12,-6 -18,-13 z"/><path id="path92" d="m 14682,696 c -11,-14 -112,-303 -112,-321 0,-14 57,-41 66,-32 11,11 105,331 100,343 -6,16 -44,24 -54,10 z"/><path id="path93" d="m 15734,696 c -18,-14 -18,-16 3,-73 22,-59 105,-265 109,-271 6,-9 74,24 74,36 0,15 -148,310 -159,317 -5,2 -17,-2 -27,-9 z"/><path id="path94" d="m 14805,658 c -21,-61 -84,-333 -78,-339 5,-4 21,-9 37,-11 34,-3 33,-7 81,210 21,98 24,126 15,137 -15,18 -49,20 -55,3 z"/><path id="path95" d="m 15605,650 c -6,-9 15,-105 66,-312 10,-39 20,-44 67,-32 28,8 29,1 -35,207 -42,132 -49,147 -69,147 -13,0 -26,-5 -29,-10 z"/><path id="path96" d="m 14940,638 c 0,-2 -14,-73 -30,-158 -38,-196 -38,-197 1,-205 17,-4 34,-3 39,1 11,13 54,330 47,349 -5,12 -57,23 -57,13 z"/><path id="path97" d="m 15493,629 c -25,-9 -25,-11 3,-196 8,-51 14,-108 14,-127 0,-19 6,-36 13,-38 23,-8 72,7 72,22 0,41 -61,340 -70,343 -5,3 -20,1 -32,-4 z"/><path id="path98" d="m 15065,553 c -4,-38 -12,-116 -19,-175 -14,-117 -11,-128 36,-128 21,0 29,6 32,23 8,39 24,331 20,339 -3,5 -18,8 -34,8 -28,0 -29,-1 -35,-67 z"/><path id="path99" d="m 15352,611 c -11,-6 -12,-38 -7,-152 9,-208 9,-209 50,-209 18,0 35,5 37,11 2,6 0,52 -4,102 -24,264 -22,252 -43,255 -11,1 -26,-2 -33,-7 z"/><path id="path100" d="m 15206,553 c -3,-32 -6,-112 -7,-178 l -2,-120 37,-3 36,-3 v 180 181 h -29 c -27,0 -29,-2 -35,-57 z"/></g><path transform="scale(0.26458333)" id="path153" d="m 767.38763,545.57303 c -5.09314,-2.34604 -6.35909,-8.52825 -2.58481,-12.62285 5.51208,-5.97991 15.32806,-0.47365 13.32645,7.47546 -0.55163,2.19073 -3.06429,4.87077 -5.08478,5.42352 -2.05748,0.56286 -4.0462,0.46579 -5.65686,-0.27613 z m 5.25168,-4.79624 c 1.33807,-1.24009 1.34012,-3.71315 0.004,-4.76419 -0.51236,-0.40302 -1.4455,-0.73277 -2.07364,-0.73277 -1.77911,0 -3.0052,1.17392 -3.0052,2.87733 0,1.70608 0.49109,2.71375 1.52571,3.13061 1.37334,0.55333 2.58974,0.37821 3.54919,-0.51098 z" style="fill: rgb(153, 153, 153); fill-opacity: 1; stroke-width: 0.353553; --darkreader-inline-fill: #a8a095;" data-darkreader-inline-fill=""/><path transform="scale(0.26458333)" id="path154" d="m 753.77583,536.7955 c -5.39585,-0.60581 -10.48015,-1.59835 -11.53866,-2.25254 -1.29688,-0.80152 -2.75279,-3.03353 -3.11489,-4.77535 -0.13049,-0.62771 0.68761,-8.30189 1.9222,-18.03123 4.43068,-34.91648 4.13431,-33.26368 6.31835,-35.23682 1.87291,-1.69207 3.50232,-2.17282 6.3741,-1.88067 1.28535,0.13076 2.71427,0.33164 3.1754,0.4464 1.00371,0.2498 1.1305,-1.31725 -1.43386,17.72071 -1.32402,9.82956 -1.73394,13.80529 -1.49457,14.49569 0.43339,1.24996 2.27233,2.17062 3.73723,1.87101 2.16264,-0.4423 2.25577,-0.79017 4.36382,-16.29928 2.36766,-17.41911 2.24632,-16.81792 3.373,-16.71236 2.04712,0.19181 10.06975,1.2297 10.15715,1.31404 0.0527,0.0508 -0.47184,4.53059 -1.16556,9.95506 -0.69372,5.42448 -1.962,15.65402 -2.8184,22.73232 -0.85639,7.07829 -1.70138,13.01392 -1.87775,13.19029 -0.17636,0.17637 -1.25811,0.56389 -2.40387,0.86116 -5.75064,1.49201 -9.67123,5.44675 -11.12557,11.22244 -0.22591,0.89718 -0.59073,1.60577 -0.81072,1.57465 -0.21998,-0.0311 -0.95681,-0.11911 -1.6374,-0.19552 z" style="fill: rgb(0, 0, 128); fill-opacity: 1; stroke-width: 0.353553; --darkreader-inline-fill: #7faeff;" data-darkreader-inline-fill=""/><path transform="scale(0.26458333)" id="path155" d="m 97.369529,538.12199 c -2.515894,-0.2863 -5.17832,-0.79208 -7.655356,-1.4543 -1.665059,-0.44514 -1.739179,-1.30474 -0.307203,-3.56273 1.095619,-1.72761 2.318043,-2.74359 4.290202,-3.56565 1.93982,-0.80859 3.397675,-2.74888 4.248466,-5.65439 0.413974,-1.41374 1.158669,-3.19547 1.654878,-3.95937 1.117244,-1.72 0.932014,-2.07841 -1.931583,-3.7376 -2.681465,-1.55366 -3.165492,-1.99047 -6.145015,-5.54555 -3.861485,-4.60742 -7.502903,-5.96171 -13.211842,-4.91365 -2.636545,0.48402 -2.88839,0.47634 -3.712311,-0.11312 -0.849717,-0.60793 -1.155303,-1.44399 -1.602348,-4.38389 -0.261346,-1.7187 -0.920454,-1.95019 -2.864045,-1.00592 -0.859612,0.41763 -1.638224,0.75933 -1.730249,0.75933 -0.09202,0 -0.167319,-0.48953 -0.167319,-1.08785 0,-1.44831 1.677785,-3.15479 3.101737,-3.15479 0.593208,0 1.672121,0.46167 2.528224,1.08183 2.250419,1.63019 2.716449,1.37962 4.052075,-2.17871 2.119301,-5.64617 5.642883,-9.57562 11.262894,-12.56021 1.724719,-0.91594 3.277346,-1.92973 3.450282,-2.25286 0.225737,-0.4218 -0.113011,-1.43207 -1.200928,-3.58162 -1.832372,-3.62047 -2.267207,-6.47034 -1.493378,-9.78745 0.581294,-2.49179 0.71449,-2.22509 -3.586817,-7.18191 -1.412832,-1.62815 -2.525156,-3.19892 -2.471832,-3.4906 0.05332,-0.29168 0.779481,-0.74672 1.613681,-1.0112 1.412458,-0.4478 1.62849,-0.42335 3.142418,0.35575 2.411807,1.24116 2.893466,2.10927 3.476868,6.26649 0.588863,4.19614 1.327808,6.09012 3.172915,8.13243 1.88862,2.09048 2.580034,1.96249 4.372653,-0.8094 1.698864,-2.62692 4.437874,-5.21512 6.769244,-6.39651 0.89602,-0.45405 1.82628,-1.06309 2.06723,-1.35341 0.24095,-0.29033 0.5913,-2.01305 0.77857,-3.82828 0.38673,-3.74871 0.57771,-4.53785 1.0982,-4.53785 3.19126,0 15.14659,5.52702 15.13816,6.99847 -0.007,1.24085 -1.72264,4.20081 -3.48088,6.00586 -1.00043,1.02706 -1.81897,2.02459 -1.81897,2.21673 0,0.19214 0.39775,1.3282 0.88389,2.52459 0.48613,1.19639 0.88388,2.52705 0.88388,2.95704 0,0.96607 -1.97805,2.8005 -4.69743,4.35638 -2.05933,1.17823 -2.4695,1.96689 -1.67585,3.22223 0.26377,0.41721 0.0596,0.60392 -0.97769,0.89397 l -1.31109,0.36662 -0.10635,2.45564 c -0.075,1.73238 0.0687,2.84392 0.48812,3.77393 0.50386,1.11737 0.53168,1.57676 0.18253,3.01434 -0.87264,3.59295 -2.62207,8.53519 -4.01832,11.35195 l -1.45653,2.93837 0.66438,1.23367 c 0.73277,1.36068 3.16416,3.29286 5.21725,4.14607 0.72854,0.30276 2.6686,0.65952 4.31124,0.79281 2.15374,0.17475 3.04297,0.38917 3.18868,0.7689 0.51979,1.35455 1.24902,7.30535 1.2503,10.20291 0.003,5.87309 -0.98169,9.1189 -3.12477,10.30441 -5.2219,2.88863 -15.78274,4.75714 -22.540861,3.9881 z" style="fill: rgb(0, 0, 128); fill-opacity: 1; stroke-width: 0.353553; --darkreader-inline-fill: #7faeff;" data-darkreader-inline-fill=""/><path transform="scale(0.26458333)" id="path156" d="m 752.18484,536.4593 c -3.85164,-0.52554 -9.08583,-1.68949 -9.94378,-2.21124 -0.5592,-0.34007 -1.47537,-1.461 -2.03595,-2.49096 l -1.01922,-1.87265 0.41028,-4.10821 c 1.10311,-11.04552 5.37465,-43.46584 6.07082,-46.0766 0.44857,-1.6822 1.82651,-3.31013 3.54303,-4.18583 1.39532,-0.71184 4.14097,-0.90014 6.77551,-0.46468 1.2664,0.20932 1.32583,0.28059 1.32583,1.58984 0,0.75388 -0.31618,3.63662 -0.70263,6.40609 -1.43268,10.26732 -2.8329,21.67691 -2.8329,23.08372 0,2.23238 1.93716,3.67125 4.25673,3.16178 1.93297,-0.42455 2.14317,-1.31267 4.76008,-20.11147 0.89038,-6.3961 1.78248,-11.935 1.98246,-12.30867 0.26618,-0.49735 0.61754,-0.63099 1.31129,-0.49875 0.52123,0.0994 2.64351,0.36964 4.71619,0.60065 2.07268,0.231 3.96446,0.54111 4.20396,0.68913 0.33629,0.20784 -0.14756,4.96735 -2.12472,20.90041 -1.40809,11.34721 -2.71888,21.53834 -2.91286,22.64696 l -0.3527,2.01566 -2.35175,0.77309 c -3.19183,1.04925 -4.7732,1.88374 -6.46346,3.41079 -2.02011,1.82505 -3.4745,4.07429 -4.38235,6.77739 -0.75216,2.23956 -0.83018,2.33323 -1.97812,2.3749 -0.6573,0.0239 -1.67238,-0.0217 -2.25574,-0.10135 z" style="fill: rgb(128, 0, 128); fill-opacity: 1; stroke-width: 0.353553; --darkreader-inline-fill: #ff72ff;" data-darkreader-inline-fill=""/><path transform="scale(0.26458333)" id="path157" d="m 75.123459,529.16236 c -5.291267,-4.18683 -9.501132,-9.45488 -12.277368,-15.3634 -1.318973,-2.80711 -3.527293,-8.9644 -3.297505,-9.19419 0.125234,-0.12523 7.465495,4.3244 9.040772,5.48048 0.68059,0.49948 1.746479,1.3844 2.368642,1.96649 1.080617,1.01102 1.108287,1.10267 0.618719,2.04939 -1.148505,2.22097 -0.790848,3.06363 3.636773,8.5685 1.833152,2.27916 2.611734,3.56874 2.881672,4.77297 0.546481,2.43793 0.61545,3.6945 0.210276,3.83112 -0.198105,0.0668 -1.629996,-0.88331 -3.181981,-2.11136 z" style="fill: rgb(0, 0, 128); fill-opacity: 1; stroke-width: 0.353553; --darkreader-inline-fill: #7faeff;" data-darkreader-inline-fill=""/><path transform="scale(0.26458333)" id="path158" d="m 80.521784,512.75021 c 0.631977,-0.0784 1.666121,-0.0784 2.298097,0 0.631977,0.0784 0.114905,0.14259 -1.149048,0.14259 -1.263953,0 -1.781025,-0.0642 -1.149049,-0.14259 z" style="fill: rgb(0, 0, 128); fill-opacity: 1; stroke-width: 0.353553; --darkreader-inline-fill: #7faeff;" data-darkreader-inline-fill=""/><path transform="scale(0.26458333)" id="path159" d="m 75.057985,514.25837 0.779217,-1.22247 6.822861,-0.015 6.822862,-0.015 0.83448,0.97014 c 0.458964,0.53358 0.760141,1.09042 0.669283,1.23744 -0.09086,0.14701 -3.887311,0.26729 -8.43656,0.26729 h -8.271361 z" style="fill: rgb(0, 128, 0); fill-opacity: 1; stroke-width: 0.353553; --darkreader-inline-fill: #72ff72;" data-darkreader-inline-fill=""/><path transform="scale(0.26458333)" id="path160" d="m 76.318888,519.60167 c -0.574889,-0.71293 -0.880572,-1.14042 -0.881155,-1.23226 -0.0015,-0.23892 1.62444,-0.2992 8.156017,-0.3024 5.379245,-0.003 10.954799,0.0853 11.557,0.1823 0.509969,0.0821 1.135942,0.39449 1.256064,0.62678 0.134701,0.26048 0.116802,0.4417 -0.09886,1.00093 l -0.192043,0.49798 h -9.586718 -9.586718 z" style="fill: rgb(0, 128, 0); fill-opacity: 1; stroke-width: 0.0625; --darkreader-inline-fill: #72ff72;" data-darkreader-inline-fill=""/><path transform="scale(0.26458333)" id="path161" d="m 80.163142,524.94842 c -0.6662,-1.05533 -0.99489,-1.76667 -0.872759,-1.8888 0.126146,-0.12615 4.202711,-0.19649 9.678367,-0.167 5.319605,0.0287 6.26106,0.0622 6.427834,0.22896 0.100067,0.10007 -0.291092,1.79615 -0.449507,1.94908 -0.02245,0.0217 -3.322698,0.059 -7.333873,0.0829 l -7.293047,0.0435 z" style="fill: rgb(0, 128, 0); fill-opacity: 1; stroke-width: 0.0625; --darkreader-inline-fill: #72ff72;" data-darkreader-inline-fill=""/><path transform="scale(0.26458333)" id="path162" d="m 72.411855,509.65393 c -0.512542,-0.4976 -0.915211,-0.92141 -0.894818,-0.9418 0.02039,-0.0204 0.974119,-0.0348 2.119395,-0.0321 1.145275,0.003 2.521634,-0.0225 3.058575,-0.0562 0.983983,-0.0618 1.080824,-0.0809 2.867493,-0.56712 1.361248,-0.37043 2.952596,-0.30779 4.464167,0.17574 1.703978,0.54507 3.647194,1.6372 3.516953,1.9766 -0.01931,0.0503 -0.170623,0.12405 -0.336243,0.16383 -0.378415,0.0909 -5.369418,0.17996 -10.269877,0.18332 l -3.59375,0.002 z" style="fill: rgb(0, 128, 0); fill-opacity: 1; stroke-width: 0.0625; --darkreader-inline-fill: #72ff72;" data-darkreader-inline-fill=""/><path transform="scale(0.26458333)" id="path163" d="m 82.254279,529.88255 c -0.92681,-0.14172 -1.133584,-0.39453 -1.148261,-1.40386 l -0.0097,-0.66767 1.193242,-0.0558 c 0.656284,-0.0307 2.815382,-0.0606 4.797995,-0.0663 l 3.604752,-0.0104 -0.643743,0.58584 c -0.951286,0.8657 -1.621031,1.33855 -2.132748,1.50575 -0.372149,0.12159 -0.884303,0.15281 -2.797828,0.17055 -1.288261,0.012 -2.576925,-0.0142 -2.8637,-0.058 z" style="fill: rgb(0, 128, 0); fill-opacity: 1; stroke-width: 0.0883883; --darkreader-inline-fill: #72ff72;" data-darkreader-inline-fill=""/><path transform="scale(0.26458333)" id="path164" d="m 84.265711,534.89172 c -1.101407,-0.45374 -2.145203,-1.03864 -2.428143,-1.36063 -0.189531,-0.2157 -0.255123,-0.38045 -0.255123,-0.64082 v -0.35048 l 1.922446,0.007 c 1.057346,0.004 2.101433,0.0342 2.320194,0.0679 l 0.397748,0.0614 -0.01242,0.39614 c -0.0232,0.74009 -0.72438,2.1218 -1.074836,2.11803 -0.0826,-8.9e-4 -0.474039,-0.13504 -0.869866,-0.29811 z" style="fill: rgb(0, 128, 0); fill-opacity: 1; stroke-width: 0.0883883; --darkreader-inline-fill: #72ff72;" data-darkreader-inline-fill=""/><path transform="scale(0.26458333)" id="path165" d="m 67.970639,505.93077 c -0.825422,-0.21313 -1.994993,-0.78116 -2.330124,-1.13168 l -0.252997,-0.26461 0.341386,-0.0981 c 0.94651,-0.2721 4.094293,-0.1728 4.634302,0.14619 0.31835,0.18806 0.524249,0.56143 0.524249,0.95067 0,0.28426 -0.0362,0.33746 -0.306521,0.45041 -0.444729,0.18581 -1.791616,0.15855 -2.610295,-0.0528 z" style="fill: rgb(0, 128, 0); fill-opacity: 1; stroke-width: 0.0883883; --darkreader-inline-fill: #72ff72;" data-darkreader-inline-fill=""/><path transform="scale(0.26458333)" id="path166" d="m 60.590536,501.18403 c -0.657328,-0.88788 -0.997133,-1.48543 -0.899962,-1.5826 0.0987,-0.0987 1.893729,-0.19289 3.822341,-0.20056 l 1.685266,-0.007 0.152963,0.8176 c 0.08413,0.44967 0.16103,0.99498 0.170889,1.2118 l 0.01793,0.39421 -0.353554,0.0647 c -0.194454,0.0356 -1.179245,0.067 -2.188424,0.0698 l -1.834872,0.005 z" style="fill: rgb(0, 128, 0); fill-opacity: 1; stroke-width: 0.0883883; --darkreader-inline-fill: #72ff72;" data-darkreader-inline-fill=""/><path transform="scale(0.26458333)" id="path167" d="m 59.953622,496.66054 c -0.670465,-0.0315 -1.119466,-0.0916 -1.186722,-0.15899 -0.146901,-0.14717 -0.239603,-0.86413 -0.247361,-1.91311 l -0.0065,-0.87245 5.855728,0.0366 c 6.129313,0.0383 6.63599,0.0713 5.757216,0.37571 -1.151218,0.39873 -1.873999,0.84358 -3.27104,2.0132 l -0.717902,0.60104 -2.552467,-0.0157 c -1.403857,-0.009 -3.037806,-0.0385 -3.630999,-0.0663 z" style="fill: rgb(0, 128, 0); fill-opacity: 1; stroke-width: 0.0883883; --darkreader-inline-fill: #72ff72;" data-darkreader-inline-fill=""/><path transform="scale(0.26458333)" id="path168" d="m 63.206532,491.37965 -4.543136,-0.0305 0.05766,-0.87978 c 0.03171,-0.48389 0.101645,-1.08491 0.15541,-1.3356 l 0.09775,-0.45582 9.249086,0.0487 c 5.086997,0.0268 9.358465,0.076 9.492152,0.10928 0.136681,0.034 0.243068,0.12147 0.243068,0.19976 0,0.33017 -1.207936,2.13329 -1.502942,2.24348 -0.219283,0.0819 -7.628924,0.13805 -13.249048,0.10038 z" style="fill: rgb(0, 128, 0); fill-opacity: 1; stroke-width: 0.0883883; --darkreader-inline-fill: #72ff72;" data-darkreader-inline-fill=""/><path transform="scale(0.26458333)" id="path169" d="m 62.181202,486.13102 c -1.507021,-0.033 -2.746156,-0.0653 -2.753634,-0.0718 -0.0075,-0.006 0.08975,-0.40945 0.21607,-0.89559 l 0.229665,-0.88388 h 11.129111 11.129112 l -0.915356,0.96705 -0.915356,0.96705 -7.689787,-0.0114 c -4.229382,-0.006 -8.922803,-0.0384 -10.429825,-0.0715 z" style="fill: rgb(0, 128, 0); fill-opacity: 1; stroke-width: 0.0883883; --darkreader-inline-fill: #72ff72;" data-darkreader-inline-fill=""/><path transform="scale(0.26458333)" id="path170" d="m 63.676939,481.54662 -2.92368,-0.0511 0.307114,-0.7734 0.307114,-0.77339 11.941537,0.0113 c 6.567846,0.006 12.67737,0.036 13.576722,0.0663 l 1.635184,0.055 -0.309359,0.23279 c -0.170148,0.12804 -0.746882,0.46524 -1.281631,0.74935 l -0.972272,0.51655 -9.678524,0.009 c -5.323188,0.005 -10.99418,-0.0141 -12.602205,-0.0422 z" style="fill: rgb(0, 128, 0); fill-opacity: 1; stroke-width: 0.0883883; --darkreader-inline-fill: #72ff72;" data-darkreader-inline-fill=""/><path transform="scale(0.26458333)" id="path171" d="m 66.865785,477.39512 c -2.187612,-0.0296 -4.027194,-0.086 -4.087961,-0.12536 -0.06077,-0.0393 -0.110486,-0.1241 -0.110486,-0.18839 0,-0.0643 0.279686,-0.68293 0.621523,-1.37474 l 0.621524,-1.25786 3.245467,0.0537 c 1.785007,0.0295 5.234205,0.075 7.664884,0.10105 7.445112,0.0799 12.170414,0.21299 12.380535,0.34882 0.201107,0.13001 0.827377,1.61576 0.858502,2.0367 0.01808,0.24445 -0.0044,0.26327 -0.378532,0.31751 -0.584966,0.0848 -16.190052,0.15122 -20.815456,0.0886 z" style="fill: rgb(0, 128, 0); fill-opacity: 1; stroke-width: 0.0883883; --darkreader-inline-fill: #72ff72;" data-darkreader-inline-fill=""/><path transform="scale(0.26458333)" id="path172" d="m 66.97627,472.10445 c -0.954918,-0.0198 -1.303428,-0.0559 -1.302608,-0.13513 0.0011,-0.11094 0.372222,-0.87575 0.667053,-1.37486 l 0.165437,-0.28006 H 76.60756 86.708969 v 0.92807 0.92808 l -9.214485,-0.0195 c -5.067967,-0.0107 -9.801163,-0.0317 -10.518214,-0.0466 z" style="fill: rgb(0, 128, 0); fill-opacity: 1; stroke-width: 0.0883883; --darkreader-inline-fill: #72ff72;" data-darkreader-inline-fill=""/><path transform="scale(0.26458333)" id="path173" d="m 72.816058,465.65197 c 1.230879,-0.0139 3.219617,-0.0139 4.419417,3e-5 1.1998,0.0139 0.192717,0.0252 -2.237962,0.0252 -2.43068,-1e-5 -3.412335,-0.0114 -2.181455,-0.0252 z" style="fill: rgb(0, 128, 0); fill-opacity: 1; stroke-width: 0.0883883; --darkreader-inline-fill: #72ff72;" data-darkreader-inline-fill=""/><path transform="scale(0.26458333)" id="path174" d="m 71.948115,467.74549 c -2.34435,-0.0601 -2.746499,-0.0981 -2.981483,-0.28176 -0.153979,-0.12037 -0.01188,-0.29955 0.869203,-1.09605 l 0.735975,-0.66531 8.311648,0.0352 c 4.571405,0.0194 8.384637,0.0683 8.473847,0.10865 0.202706,0.0918 0.161054,0.35952 -0.200099,1.2862 l -0.258356,0.66291 -6.260028,0.006 c -3.443015,0.003 -7.353833,-0.0218 -8.690707,-0.0561 z" style="fill: rgb(0, 128, 0); fill-opacity: 1; stroke-width: 0.0883883; --darkreader-inline-fill: #72ff72;" data-darkreader-inline-fill=""/><path transform="scale(0.26458333)" id="path175" d="m 73.687821,463.07476 -0.425809,-0.0524 0.293226,-0.27464 c 0.161275,-0.15105 0.515602,-0.43941 0.787394,-0.64081 l 0.494168,-0.36618 h 4.463175 4.463176 l 0.611123,0.64081 0.611122,0.64082 -0.574524,0.056 c -0.722772,0.0704 -10.147533,0.0673 -10.723051,-0.004 z" style="fill: rgb(0, 128, 0); fill-opacity: 1; stroke-width: 0.0883883; --darkreader-inline-fill: #72ff72;" data-darkreader-inline-fill=""/><path transform="scale(0.26458333)" id="path176" d="" style="fill: rgb(0, 128, 0); fill-opacity: 1; stroke-width: 0.0883883; --darkreader-inline-fill: #72ff72;" data-darkreader-inline-fill=""/><path transform="scale(0.26458333)" id="path177" d="" style="fill: rgb(0, 128, 0); fill-opacity: 1; stroke-width: 0.0883883; --darkreader-inline-fill: #72ff72;" data-darkreader-inline-fill=""/><path transform="scale(0.26458333)" id="path178" d="" style="fill: rgb(0, 128, 0); fill-opacity: 1; stroke-width: 0.0883883; --darkreader-inline-fill: #72ff72;" data-darkreader-inline-fill=""/><path transform="scale(0.26458333)" id="path179" d="m 79.213089,458.79744 c 0.642454,-0.57621 1.352256,-0.97622 1.615185,-0.91022 0.238088,0.0598 0.88734,0.92889 0.774964,1.03742 -0.105891,0.10226 -1.394975,0.25313 -2.126412,0.24886 l -0.678614,-0.004 z" style="fill: rgb(0, 128, 0); fill-opacity: 1; stroke-width: 0.0883883; --darkreader-inline-fill: #72ff72;" data-darkreader-inline-fill=""/><path transform="scale(0.26458333)" id="path180" d="m 74.445545,494.84558 c -0.765599,-0.35644 -1.715019,-0.67387 -2.231706,-0.74615 l -0.486695,-0.0681 0.265165,-0.12316 c 0.340837,-0.15831 2.885385,-0.16934 3.248272,-0.0141 0.299186,0.12801 0.3245,0.45987 0.06726,0.88177 -0.209418,0.34347 -0.264683,0.34794 -0.862296,0.0697 z" style="fill: rgb(0, 128, 0); fill-opacity: 1; stroke-width: 0.0883883; --darkreader-inline-fill: #72ff72;" data-darkreader-inline-fill=""/><path transform="scale(0.26458333)" id="path182" d="m 96.703669,468.35681 c -0.253251,-0.27184 -0.99703,-1.74561 -1.278542,-2.53339 -0.268848,-0.75234 -0.2954,-1.07749 -0.08799,-1.07749 0.237957,0 2.254057,1.0824 2.56853,1.37898 0.177495,0.1674 0.293787,0.36282 0.293787,0.49369 0,0.32094 -0.752752,1.49914 -1.164095,1.82204 -0.124163,0.0975 -0.174687,0.0847 -0.33169,-0.0838 z" style="fill: rgb(0, 128, 0); fill-opacity: 1; stroke-width: 0.0883883; --darkreader-inline-fill: #72ff72;" data-darkreader-inline-fill=""/><path transform="scale(0.26458333)" id="path183" d="m 98.066871,463.21315 c -2.629421,-1.34719 -3.231534,-1.70975 -3.402712,-2.04893 -0.09099,-0.1803 -0.132821,-0.53358 -0.132821,-1.12181 0,-1.27774 -0.01,-1.27408 1.509374,-0.55443 2.204767,1.04429 6.047828,3.06291 6.047828,3.17671 0,0.17778 -1.6287,1.64214 -1.82106,1.63731 -0.0436,-0.001 -1.033882,-0.49108 -2.200609,-1.08885 z" style="fill: rgb(0, 128, 0); fill-opacity: 1; stroke-width: 0.0883883; --darkreader-inline-fill: #72ff72;" data-darkreader-inline-fill=""/><path transform="scale(0.26458333)" id="path193" d="m 104.70398,460.72303 c -0.67021,-0.13834 -4.19311,-1.75977 -8.468751,-3.89778 -3.582667,-1.7915 -5.401879,-2.78419 -5.360484,-2.92507 0.02715,-0.0924 0.5003,-0.28781 0.960748,-0.3968 1.068232,-0.25287 1.783322,-0.28215 2.398993,-0.0983 0.653949,0.19533 1.764621,0.65224 2.992696,1.23112 3.777778,1.78076 7.816118,3.7559 8.456878,4.13623 0.64902,0.38523 0.82064,0.60642 0.75803,0.97698 -0.0372,0.22047 -0.23479,0.53221 -0.4331,0.68347 -0.30955,0.2361 -0.91478,0.37065 -1.30501,0.2901 z" style="fill: rgb(0, 128, 128); fill-opacity: 0; stroke-width: 0.0441942; --darkreader-inline-fill: #72ffff;" data-darkreader-inline-fill=""/><path transform="scale(0.26458333)" id="path194" d="m 104.70398,460.72303 c -0.67021,-0.13834 -4.19311,-1.75977 -8.468751,-3.89778 -3.582667,-1.7915 -5.401879,-2.78419 -5.360484,-2.92507 0.02715,-0.0924 0.5003,-0.28781 0.960748,-0.3968 1.068232,-0.25287 1.783322,-0.28215 2.398993,-0.0983 0.653949,0.19533 1.764621,0.65224 2.992696,1.23112 3.777778,1.78076 7.816118,3.7559 8.456878,4.13623 0.64902,0.38523 0.82064,0.60642 0.75803,0.97698 -0.0372,0.22047 -0.23479,0.53221 -0.4331,0.68347 -0.30955,0.2361 -0.91478,0.37065 -1.30501,0.2901 z" style="fill: rgb(0, 128, 0); fill-opacity: 0; stroke-width: 0.0441942; --darkreader-inline-fill: #72ff72;" data-darkreader-inline-fill=""/><path transform="scale(0.26458333)" id="path195" d="m 104.70398,460.72303 c -0.67021,-0.13834 -4.19311,-1.75977 -8.468751,-3.89778 -3.582667,-1.7915 -5.401879,-2.78419 -5.360484,-2.92507 0.02715,-0.0924 0.5003,-0.28781 0.960748,-0.3968 1.068232,-0.25287 1.783322,-0.28215 2.398993,-0.0983 0.653949,0.19533 1.764621,0.65224 2.992696,1.23112 3.777778,1.78076 7.816118,3.7559 8.456878,4.13623 0.64902,0.38523 0.82064,0.60642 0.75803,0.97698 -0.0372,0.22047 -0.23479,0.53221 -0.4331,0.68347 -0.30955,0.2361 -0.91478,0.37065 -1.30501,0.2901 z" style="fill: rgb(0, 128, 0); fill-opacity: 0; stroke-width: 0.0441942; --darkreader-inline-fill: #72ff72;" data-darkreader-inline-fill=""/><path transform="scale(0.26458333)" id="path196" d="m 106.14686,456.08305 c -0.91781,-0.31589 -4.93976,-2.26635 -6.199494,-3.00647 -0.790635,-0.46451 -0.860243,-0.57936 -0.39168,-0.64625 0.368218,-0.0526 3.106944,-0.0363 4.123844,0.0245 1.3147,0.0786 3.40584,0.30263 3.47556,0.37235 0.0318,0.0318 -0.18509,2.10984 -0.27537,2.63797 -0.10231,0.59846 -0.15427,0.70748 -0.33636,0.70563 -0.0802,-8.1e-4 -0.25866,-0.0403 -0.3965,-0.0877 z" style="fill: rgb(0, 128, 0); fill-opacity: 1; stroke-width: 0.0441942; --darkreader-inline-fill: #72ff72;" data-darkreader-inline-fill=""/><path transform="scale(0.26458333)" id="path197" d="m 104.70398,460.72303 c -0.67021,-0.13834 -4.19311,-1.75977 -8.468751,-3.89778 -3.582667,-1.7915 -5.401879,-2.78419 -5.360484,-2.92507 0.02715,-0.0924 0.5003,-0.28781 0.960748,-0.3968 1.068232,-0.25287 1.783322,-0.28215 2.398993,-0.0983 0.653949,0.19533 1.764621,0.65224 2.992696,1.23112 3.777778,1.78076 7.816118,3.7559 8.456878,4.13623 0.64902,0.38523 0.82064,0.60642 0.75803,0.97698 -0.0372,0.22047 -0.23479,0.53221 -0.4331,0.68347 -0.30955,0.2361 -0.91478,0.37065 -1.30501,0.2901 z" style="fill: rgb(0, 128, 0); fill-opacity: 1; stroke-width: 0.0441942; --darkreader-inline-fill: #72ff72;" data-darkreader-inline-fill=""/><path transform="scale(0.26458333)" id="path198" d="m 124.24048,471.58629 c -0.0704,-0.10402 -0.18875,-0.29852 -0.26302,-0.4322 -0.15304,-0.27547 -0.7641,-1.64621 -0.7641,-1.71404 0,-0.0244 0.2834,-0.33982 0.62978,-0.70092 1.92074,-2.00233 2.77572,-3.32083 3.75001,-5.78306 0.31216,-0.78891 0.47431,-1.02796 0.66482,-0.98014 0.12166,0.0305 0.55885,0.34838 1.03209,0.75034 0.49058,0.41671 2.09922,1.90469 2.09922,1.94177 0,0.0836 -1.91269,2.11492 -3.66771,3.89527 -1.16538,1.18221 -2.86094,2.82232 -3.17435,3.07054 l -0.17876,0.14159 z" style="fill: rgb(0, 128, 0); fill-opacity: 1; stroke-width: 0.0441942; --darkreader-inline-fill: #72ff72;" data-darkreader-inline-fill=""/><path transform="scale(0.26458333)" id="path199" d="m 115.79106,487.38837 c -0.0508,-0.0645 -0.12165,-0.21861 -0.15753,-0.34239 -0.0617,-0.21289 -0.15193,-1.07459 -0.15345,-1.46562 l -7e-4,-0.17991 0.75586,-0.32588 c 1.4472,-0.62393 1.90153,-0.99097 2.16131,-1.74604 0.0926,-0.2692 0.17539,-1.0018 0.17604,-1.55821 3.9e-4,-0.32914 0.0719,-0.57604 0.21164,-0.73043 0.0414,-0.0458 0.35388,-0.24801 0.69437,-0.44943 0.97583,-0.57727 1.92934,-1.28677 3.00555,-2.23638 1.01475,-0.89537 1.48195,-1.47471 2.55039,-3.16249 0.4299,-0.67911 2.00674,-2.3868 4.60813,-4.99052 2.00695,-2.00875 3.10621,-3.04686 3.50761,-3.31249 0.23125,-0.15303 0.291,-0.13112 0.69888,0.25633 0.31027,0.29472 1.07565,1.24709 1.07565,1.33844 0,0.0745 -4.70776,4.92098 -8.79749,9.05679 -0.9374,0.94797 -1.95167,1.97978 -2.25392,2.29292 -0.7492,0.77617 -5.6044,5.55322 -6.45239,6.34853 -0.71322,0.66892 -1.33606,1.21543 -1.46343,1.2841 -0.056,0.0302 -0.0969,0.0112 -0.16652,-0.0773 z" style="fill: rgb(0, 128, 0); fill-opacity: 1; stroke-width: 0.0441942; --darkreader-inline-fill: #72ff72;" data-darkreader-inline-fill=""/><path transform="scale(0.26458333)" id="path200" d="m 116.27225,493.90264 c 0.0334,-0.21247 0.24103,-1.13617 0.46142,-2.05268 l 0.40071,-1.66639 6.83835,-6.92021 c 6.27283,-6.34793 11.65361,-11.68375 12.25618,-12.15377 l 0.24343,-0.18988 0.50787,0.51605 c 0.27932,0.28383 0.57722,0.64059 0.66198,0.79279 l 0.15411,0.27673 -1.08219,1.17944 c -1.28337,1.39871 -15.56512,15.9634 -18.14628,18.50579 -0.9871,0.97227 -1.92108,1.84217 -2.07551,1.9331 l -0.28078,0.16533 z" style="fill: rgb(0, 128, 0); fill-opacity: 1; stroke-width: 0.0883883; --darkreader-inline-fill: #72ff72;" data-darkreader-inline-fill=""/><path transform="scale(0.26458333)" id="path201" d="m 111.63448,506.91174 c 0,-0.13853 0.46833,-1.28302 1.11106,-2.71517 0.32362,-0.72109 0.77835,-1.7778 1.01052,-2.34824 0.80343,-1.97404 0.3391,-1.46715 14.10978,-15.40306 3.69887,-3.74325 7.76345,-7.81361 9.03241,-9.04526 l 2.3072,-2.23935 0.40643,0.62829 c 0.22354,0.34555 0.52839,0.88887 0.67743,1.20737 0.22723,0.48558 0.25433,0.61014 0.16782,0.77138 -0.10652,0.19856 -2.81665,3.00432 -9.24463,9.57085 -3.49463,3.56997 -9.66817,9.91692 -15.1586,15.5844 -1.33687,1.37999 -2.7677,2.80477 -3.17961,3.16619 -0.75792,0.66501 -1.23981,0.98474 -1.23981,0.8226 z" style="fill: rgb(0, 128, 0); fill-opacity: 1; stroke-width: 0.0883883; --darkreader-inline-fill: #72ff72;" data-darkreader-inline-fill=""/><path transform="scale(0.26458333)" id="path202" d="m 115.16048,509.61589 c -0.65748,-0.27046 -1.13951,-0.57451 -1.13951,-0.71877 0,-0.27449 2.49882,-2.90839 11.27453,-11.88401 8.74152,-8.94065 10.00886,-10.24365 12.74533,-13.10404 2.27146,-2.37433 3.36646,-3.43001 3.55772,-3.43001 0.10517,0 0.42368,0.7275 0.76472,1.74669 l 0.30841,0.92165 -0.55887,0.58993 c -2.93862,3.10194 -4.08586,4.30541 -6.91918,7.25831 -13.1778,13.73396 -17.4895,18.03515 -18.69647,18.6509 -0.44612,0.22759 -0.72442,0.22121 -1.33668,-0.0307 z" style="fill: rgb(0, 128, 0); fill-opacity: 1; stroke-width: 0.0883883; --darkreader-inline-fill: #72ff72;" data-darkreader-inline-fill=""/><path transform="scale(0.26458333)" id="path203" d="m 122.63883,510.38748 c -2.16124,-0.15431 -2.28013,-0.1745 -2.17154,-0.36879 0.20035,-0.35849 3.30794,-3.6005 12.25974,-12.79004 3.31491,-3.40295 7.05759,-7.21388 8.31707,-8.46873 l 2.28995,-2.28154 0.15011,0.337 c 0.35004,0.78584 0.54163,2.68056 0.3279,3.2427 -0.20347,0.53518 -3.19106,3.70981 -13.69369,14.551 -3.13185,3.2328 -5.7181,5.88243 -5.74721,5.88806 -0.0291,0.006 -0.80867,-0.0437 -1.73233,-0.10966 z" style="fill: rgb(0, 128, 0); fill-opacity: 1; stroke-width: 0.0883883; --darkreader-inline-fill: #72ff72;" data-darkreader-inline-fill=""/><path transform="scale(0.26458333)" id="path204" d="m 125.29342,516.72303 c -0.0763,-0.12348 -0.48752,-2.12564 -0.48837,-2.37788 -10e-4,-0.43342 0.34426,-0.87494 2.24286,-2.86435 6.44283,-6.75097 17.02792,-17.51086 17.12798,-17.4108 0.10607,0.10607 0.31392,1.16795 0.38526,1.96828 0.11216,1.25815 -0.15915,1.76612 -1.92455,3.60336 -2.93015,3.04939 -11.93014,12.12321 -14.12934,14.24526 -2.61112,2.51951 -3.12775,2.97542 -3.21384,2.83613 z" style="fill: rgb(0, 128, 0); fill-opacity: 1; stroke-width: 0.0883883; --darkreader-inline-fill: #72ff72;" data-darkreader-inline-fill=""/><path transform="scale(0.26458333)" id="path205" d="m 125.89185,522.13207 c 0.0291,-0.57121 0.0956,-1.18478 0.14794,-1.3635 0.21173,-0.72351 0.39354,-0.91899 9.64495,-10.37006 6.90931,-7.05843 8.01293,-8.14467 8.1429,-8.0147 0.13281,0.13281 -0.30494,2.35476 -0.58694,2.97922 -0.11043,0.24454 -0.50086,0.80138 -0.86763,1.23744 -0.8686,1.03268 -5.15029,5.46202 -10.40927,10.76818 -4.17606,4.21354 -5.82463,5.80198 -6.02161,5.80198 -0.0758,0 -0.0892,-0.27562 -0.0503,-1.03856 z" style="fill: rgb(0, 128, 0); fill-opacity: 1; stroke-width: 0.0883883; --darkreader-inline-fill: #72ff72;" data-darkreader-inline-fill=""/><path transform="scale(0.26458333)" id="path206" d="m 125.1579,531.08587 c 0,-0.0705 0.0781,-0.5378 0.17348,-1.03856 0.0954,-0.50076 0.21251,-1.15889 0.2602,-1.46252 0.14622,-0.93092 0.37197,-1.21092 4.32956,-5.36997 2.70613,-2.84388 11.04715,-11.26951 11.15634,-11.26951 0.11885,0 -0.0833,0.46501 -1.02713,2.36307 -2.43785,4.90242 -4.51966,7.77517 -8.41061,11.60609 -2.27504,2.23993 -4.32467,4.01946 -5.67117,4.92382 -0.58575,0.39341 -0.81067,0.46211 -0.81067,0.24758 z" style="fill: rgb(0, 128, 0); fill-opacity: 1; stroke-width: 0.0883883; --darkreader-inline-fill: #72ff72;" data-darkreader-inline-fill=""/><path transform="scale(0.26458333)" id="path207" d="m 382.35053,548.02795 c -0.48359,-0.0344 -0.88959,-0.0728 -0.90222,-0.0855 -0.0313,-0.0313 0.0526,-0.88968 0.24438,-2.498 0.0884,-0.74135 0.16214,-1.46416 0.16389,-1.60623 0.003,-0.23548 -0.008,-0.26759 -0.12861,-0.36339 -0.0725,-0.0578 -0.26794,-0.13605 -0.43433,-0.1739 -0.30756,-0.07 -1.54352,-0.21528 -3.05286,-0.35898 l -0.83475,-0.0795 0.031,-0.7463 c 0.0321,-0.77071 0.12228,-1.51647 0.20135,-1.66421 0.0913,-0.17052 0.7221,-0.17017 2.49776,10e-4 1.09314,0.1056 1.90185,0.11459 1.93756,0.0215 0.0784,-0.20445 0.38663,-2.58124 0.49681,-3.83165 0.0164,-0.18593 0.0447,-0.36217 0.0629,-0.39164 0.0259,-0.0419 0.28424,-0.0402 1.18532,0.008 0.63371,0.0339 1.16697,0.0764 1.18502,0.0945 0.018,0.0181 0.008,1.05863 -0.0225,2.3124 -0.0304,1.25378 -0.044,2.29094 -0.0301,2.30482 0.0139,0.0139 0.69621,0.0802 1.51631,0.14732 2.20197,0.1803 2.50011,0.23933 2.72389,0.53934 0.0819,0.10982 0.0948,0.19755 0.1082,0.73587 0.0244,0.98256 -0.0655,1.34549 -0.37272,1.50383 -0.17009,0.0877 -0.86819,0.0811 -1.6316,-0.0154 -0.69523,-0.0879 -1.99833,-0.20506 -2.2835,-0.20536 -0.12423,-1.4e-4 -0.23297,0.026 -0.27241,0.0654 -0.12457,0.12457 -0.25226,0.91607 -0.38394,2.37983 -0.10198,1.13357 -0.14269,1.39319 -0.25329,1.61515 -0.1755,0.35222 -0.3881,0.38749 -1.75158,0.2906 z" style="fill: rgb(255, 221, 85); fill-opacity: 1; stroke-width: 0.0441942; --darkreader-inline-fill: #ffdd55;" data-darkreader-inline-fill=""/><path transform="scale(0.26458333)" id="path208" d="m 381.90826,492.71875 c -0.0673,-0.0859 -0.3921,-0.6625 -0.72178,-1.28125 -0.75631,-1.41943 -1.13811,-1.9375 -1.42786,-1.9375 -0.12575,0 -0.94219,0.25312 -1.8143,0.5625 -0.87211,0.30937 -1.69173,0.5625 -1.82137,0.5625 -0.15959,0 -0.37899,-0.25619 -0.67933,-0.79326 -0.24399,-0.4363 -0.44362,-0.82568 -0.44362,-0.8653 0,-0.0396 0.54844,-0.28018 1.21875,-0.53457 0.67031,-0.2544 1.52023,-0.59598 1.88871,-0.75907 0.62618,-0.27715 0.66437,-0.31903 0.58437,-0.64091 -0.0471,-0.18942 -0.39377,-0.96472 -0.77044,-1.7229 -0.40788,-0.82102 -0.65322,-1.46089 -0.60667,-1.58221 0.10395,-0.2709 1.24151,-0.75168 1.6632,-0.70295 0.27127,0.0314 0.44494,0.22787 0.91789,1.03867 0.32081,0.55 0.74657,1.225 0.94612,1.5 0.35128,0.48411 0.38439,0.49933 1.04169,0.47896 0.44873,-0.0139 1.05697,-0.17282 1.79415,-0.46875 1.57143,-0.63083 1.62957,-0.62036 2.0966,0.37766 0.31664,0.67665 0.35488,0.84525 0.21218,0.93572 -0.0957,0.0607 -0.86254,0.40001 -1.70403,0.75404 -0.84149,0.35403 -1.58711,0.71253 -1.65693,0.79665 -0.16313,0.19656 0.0382,0.77265 0.80023,2.28997 0.3202,0.63755 0.54816,1.21423 0.50657,1.28151 -0.10057,0.16274 -1.50253,0.86674 -1.72602,0.86674 -0.0967,0 -0.23082,-0.0703 -0.29811,-0.15625 z" style="fill: rgb(255, 221, 85); fill-opacity: 1; stroke-width: 0.125; --darkreader-inline-fill: #ffdd55;" data-darkreader-inline-fill=""/></g></svg>