<?xml version="1.0" encoding="UTF-8" standalone="no"?>
<!-- Created with Inkscape (http://www.inkscape.org/) -->

<svg
   width="210mm"
   height="297mm"
   viewBox="0 0 210 297"
   version="1.1"
   id="svg1"
   xml:space="preserve"
   inkscape:version="1.3.2 (091e20e, 2023-11-25)"
   sodipodi:docname="my_logo colour.svg"
   xmlns:inkscape="http://www.inkscape.org/namespaces/inkscape"
   xmlns:sodipodi="http://sodipodi.sourceforge.net/DTD/sodipodi-0.dtd"
   xmlns="http://www.w3.org/2000/svg"
   xmlns:svg="http://www.w3.org/2000/svg"><sodipodi:namedview
     id="namedview1"
     pagecolor="#ffffff"
     bordercolor="#000000"
     borderopacity="0.25"
     inkscape:showpageshadow="2"
     inkscape:pageopacity="0.0"
     inkscape:pagecheckerboard="0"
     inkscape:deskcolor="#d1d1d1"
     inkscape:document-units="mm"
     inkscape:zoom="1.6926207"
     inkscape:cx="374.2717"
     inkscape:cy="470.27667"
     inkscape:window-width="1920"
     inkscape:window-height="1163"
     inkscape:window-x="0"
     inkscape:window-y="0"
     inkscape:window-maximized="1"
     inkscape:current-layer="layer1" /><defs
     id="defs1" /><g
     inkscape:label="Layer 1"
     inkscape:groupmode="layer"
     id="layer1"><g
       transform="matrix(0.03527778,0,0,-0.03527778,1.2176204,235.90793)"
       fill="#000000"
       stroke="none"
       id="g5"><path
         d="m 2436,4780 c -50,-13 -148,-66 -175,-93 -11,-12 -261,-350 -555,-752 -378,-514 -542,-746 -557,-785 -29,-78 -24,-203 12,-280 35,-76 76,-119 188,-202 53,-39 100,-74 104,-78 4,-3 -8,-40 -28,-81 -56,-120 -77,-215 -77,-354 0,-91 5,-139 21,-200 62,-231 215,-418 426,-520 134,-65 196,-79 355,-79 110,0 149,4 213,22 133,38 247,103 347,198 l 56,53 224,-165 c 123,-90 232,-164 240,-164 9,0 26,10 37,23 15,16 936,1270 1190,1620 26,35 33,54 29,71 -4,16 -51,57 -140,123 l -134,98 44,48 c 191,211 174,552 -37,751 -118,112 -263,165 -417,153 -127,-10 -230,-54 -325,-137 -43,-38 -117,-135 -128,-167 -4,-12 -601,417 -607,436 -2,5 33,58 76,118 84,114 90,126 79,158 -9,25 -154,130 -223,162 -58,26 -177,38 -238,23 z m 171,-116 c 43,-15 163,-91 163,-103 0,-6 -923,-1268 -939,-1283 -4,-4 -38,15 -76,42 -85,61 -149,84 -237,85 -45,0 -64,3 -60,11 35,56 859,1167 886,1193 39,37 121,70 178,71 21,0 59,-7 85,-16 z m 380,-668 c 175,-128 317,-237 316,-243 -1,-5 -16,-137 -32,-293 -17,-157 -34,-302 -37,-322 l -6,-38 -88,62 c -77,53 -96,62 -145,66 -74,6 -132,-17 -188,-75 -36,-37 -52,-46 -88,-50 -38,-4 -50,-1 -94,30 -209,149 -241,162 -329,137 -116,-32 -180,-146 -153,-272 l 8,-38 h -50 c -167,0 -363,-86 -506,-221 l -70,-67 -110,81 c -138,103 -166,144 -173,252 -4,69 -2,80 26,138 36,71 83,114 157,139 101,35 175,16 301,-77 57,-42 98,-65 115,-65 24,0 50,32 215,257 104,141 192,261 196,266 3,6 54,-25 115,-69 152,-111 159,-115 217,-121 98,-10 177,33 221,120 39,78 30,166 -22,228 -15,17 -79,70 -143,117 -63,46 -116,86 -118,87 -3,3 140,204 145,205 2,0 146,-105 320,-234 z m 1013,55 c 112,-43 208,-141 252,-256 18,-48 23,-80 23,-160 0,-92 -3,-105 -32,-168 -18,-38 -46,-86 -63,-107 -60,-76 -85,-88 -767,-387 -46,-20 -85,-34 -87,-32 -2,2 0,36 5,74 5,39 24,214 44,390 19,176 41,341 49,367 41,137 161,253 305,294 65,19 202,12 271,-15 z M 2606,3827 c 58,-42 96,-78 104,-97 29,-70 -24,-150 -99,-150 -32,0 -58,14 -159,88 -67,48 -122,90 -122,95 0,4 28,45 62,92 l 61,85 31,-23 c 17,-13 72,-53 122,-90 z m -116,-733 c 119,-87 154,-104 212,-104 66,0 112,21 174,80 43,41 59,50 89,50 20,0 46,-5 58,-11 31,-17 170,-119 183,-135 7,-8 8,-35 3,-76 -12,-105 16,-126 117,-83 l 64,27 47,-34 c 27,-19 152,-110 278,-203 127,-92 231,-169 232,-170 5,-3 -508,-700 -517,-703 -8,-3 -336,233 -382,276 -15,14 -33,40 -39,59 -10,30 -7,40 21,95 71,135 44,228 -95,334 -50,37 -96,83 -123,121 -54,79 -172,188 -252,235 -35,20 -97,49 -139,63 -42,14 -92,34 -111,43 -78,38 -87,145 -17,192 51,34 90,23 197,-56 z m 1750,-15 c 60,-45 110,-86 110,-91 0,-20 -335,-466 -345,-459 -5,5 -120,88 -254,186 l -244,179 29,13 c 136,63 572,252 581,252 7,1 62,-35 123,-80 z M 2325,2880 c 141,-39 248,-101 350,-204 93,-95 136,-163 178,-283 42,-120 50,-289 19,-410 -136,-539 -776,-747 -1202,-393 -115,96 -211,259 -245,414 -25,112 -17,272 20,381 85,259 313,456 583,505 58,11 243,5 297,-10 z m 633,-600 v -25 l -8,25 c -4,14 -8,34 -8,45 l -1,20 9,-20 c 5,-11 8,-31 8,-45 z m 215,-505 c 103,-75 187,-141 185,-145 -8,-22 -134,-189 -143,-189 -12,-1 -380,268 -380,277 0,4 14,34 31,67 18,33 40,86 50,118 l 18,57 25,-23 c 14,-14 111,-86 214,-162 z"
         id="path1" /><path
         d="m 3760,3844 c -88,-38 -151,-147 -135,-232 17,-90 82,-162 166,-182 146,-35 280,80 266,229 -13,149 -164,243 -297,185 z m 156,-128 c 56,-56 44,-135 -26,-171 -37,-19 -54,-19 -97,2 -103,49 -61,203 56,203 24,0 42,-9 67,-34 z"
         id="path2" /><path
         d="m 1960,2807 c -91,-28 -136,-51 -217,-110 -115,-85 -207,-220 -248,-367 -25,-86 -26,-251 -2,-340 111,-417 577,-631 958,-439 414,208 505,754 180,1078 -142,142 -261,192 -466,198 -113,2 -140,0 -205,-20 z m 160,-96 c 0,-51 3,-61 20,-66 32,-10 40,3 40,67 v 60 l 53,-7 c 196,-27 379,-159 466,-337 33,-67 61,-165 61,-210 0,-26 -2,-27 -57,-30 -52,-3 -58,-5 -61,-27 -5,-31 12,-41 71,-41 45,0 47,-1 47,-28 0,-41 -27,-136 -56,-198 -89,-189 -283,-327 -489,-346 -30,-3 -30,-3 -35,57 -5,56 -7,60 -30,60 -24,0 -25,-3 -28,-62 l -3,-62 -32,5 c -182,30 -298,93 -407,218 -71,83 -139,246 -140,334 0,20 5,22 49,22 59,0 87,20 71,51 -9,15 -22,19 -67,19 h -56 l 7,56 c 9,81 59,199 116,276 84,114 199,190 343,228 116,31 117,30 117,-39 z"
         id="path3" /><path
         d="m 2245,2443 -250,-135 -133,-251 c -129,-244 -145,-287 -106,-287 19,0 525,219 542,234 7,7 64,131 128,276 116,265 124,292 83,297 -8,0 -126,-60 -264,-134 z m 183,8 c -1,-6 -41,-97 -88,-204 l -84,-195 -116,-51 c -254,-111 -295,-129 -297,-127 -2,2 43,89 100,195 l 102,192 185,99 c 184,99 205,108 198,91 z"
         id="path4" /><path
         d="m 2093,2235 c -29,-20 -46,-75 -34,-107 31,-83 139,-89 176,-11 20,41 14,75 -20,109 -28,28 -88,33 -122,9 z m 71,-51 c 20,-8 21,-38 1,-54 -12,-10 -18,-10 -30,0 -18,15 -20,46 -2,53 6,3 13,6 14,6 1,1 8,-2 17,-5 z"
         id="path5" /></g><path
       style="fill:#f9f9f9;stroke-width:0.5908"
       d="m 448.41707,497.22408 c 0,-1.06598 1.86745,-18.53195 4.14989,-38.81327 6.02163,-53.50716 7.55218,-65.1634 9.26379,-70.55072 5.66952,-17.84487 22.522,-33.51958 41.08509,-38.2138 4.13997,-1.04691 6.06635,-1.17049 14.57183,-0.93485 11.42084,0.31642 16.38988,1.29301 23.59253,4.63678 14.29333,6.63557 25.53459,19.29064 30.91862,34.80727 l 1.94749,5.6126 0.005,12.9976 c 0.005,12.85024 -0.0134,13.0444 -1.64322,17.12594 -0.90667,2.27059 -2.80994,6.31165 -4.22949,8.98012 -7.65582,14.39146 -11.7297,17.9297 -31.87019,27.67983 -15.98382,7.73787 -77.97724,35.21564 -84.6899,37.53769 l -3.1017,1.07295 z m 74.50529,-62.40764 c 7.60441,-1.44215 15.76293,-7.37272 19.31792,-14.04256 6.40145,-12.01035 4.36265,-26.11128 -5.15084,-35.62478 -11.55358,-11.55357 -28.6932,-11.56167 -40.17578,-0.019 -8.22484,8.2679 -11.32549,18.86469 -8.34365,28.51523 4.71024,15.24441 19.03912,24.07519 34.35235,21.17109 z"
       id="path10"
       transform="scale(0.26458333)" /><path
       style="fill:#f9f9f9;stroke-width:0.5908"
       d="m 513.195,419.47368 c -7.39618,-2.88906 -11.08528,-8.17146 -10.20286,-14.60943 0.99894,-7.28807 7.25409,-12.78354 14.54852,-12.78163 3.23383,8.5e-4 5.82689,1.28717 8.82729,4.37888 6.26022,6.45072 6.25586,14.05143 -0.0113,19.68614 -2.68813,2.41686 -7.13304,4.54061 -9.36434,4.47421 -0.51076,-0.0152 -2.21955,-0.53188 -3.79731,-1.14817 z"
       id="path11"
       transform="scale(0.26458333)" /><path
       style="fill:#ff0000;stroke-width:0.5908"
       d="m 448.74251,498.68367 c -0.19085,-0.30882 -0.10827,-2.77236 0.18351,-5.47454 0.29178,-2.70219 0.53507,-5.31186 0.54063,-5.79927 0.006,-0.48741 0.4219,-4.34238 0.92517,-8.56659 0.50328,-4.22422 1.07929,-9.37552 1.28004,-11.44732 0.20074,-2.07181 0.47055,-4.59748 0.59958,-5.6126 0.12903,-1.01513 0.39489,-3.40787 0.5908,-5.3172 0.19591,-1.90934 0.46529,-4.30208 0.59861,-5.3172 0.24275,-1.84828 2.45556,-21.03107 2.93895,-25.47767 0.21113,-1.94208 3.37666,-26.35982 4.09841,-31.6136 0.5017,-3.65197 4.4797,-14.98177 5.59871,-15.94579 0.18859,-0.16247 1.33543,-1.75763 2.54853,-3.54479 3.65309,-5.38185 4.10101,-5.926 7.71754,-9.3756 5.43817,-5.18713 9.67129,-8.16331 16.06867,-11.29738 6.25727,-3.06543 11.01008,-4.51837 16.64407,-5.08809 5.23288,-0.52916 20.72198,0.74975 24.92564,2.05808 1.99457,0.62078 3.62648,1.04531 3.62648,0.94341 0,-0.1019 2.39787,1.1176 5.32859,2.71001 8.6511,4.70058 14.28044,9.41055 19.58074,16.38284 1.40957,1.85423 2.76226,3.45995 3.00596,3.56826 0.24371,0.10831 0.4431,0.55458 0.4431,0.9917 0,0.43712 0.33233,1.14608 0.7385,1.57546 0.72001,0.76116 3.25848,5.80466 3.21783,6.3933 -0.0112,0.16247 0.34744,0.96005 0.797,1.7724 0.44957,0.81235 0.86006,1.6764 0.91218,1.9201 0.0521,0.24371 0.16125,0.57603 0.24249,0.7385 0.0812,0.16247 0.18734,0.4948 0.23578,0.7385 0.0484,0.24371 0.4325,1.64863 0.85347,3.12205 0.55485,1.942 0.71346,6.41139 0.57657,16.247 l -0.18882,13.56804 -3.54014,7.385 c -1.94708,4.06175 -3.87456,7.73631 -4.2833,8.1657 -0.40874,0.42938 -0.74316,1.13834 -0.74316,1.57547 0,0.43712 -0.20358,0.88338 -0.45239,0.9917 -0.24882,0.10831 -1.2458,1.28532 -2.2155,2.61559 -1.98006,2.71629 -5.44361,6.73873 -5.80242,6.73873 -0.12937,0 -2.06498,1.22758 -4.30135,2.72795 -3.52464,2.36467 -22.68627,12.38083 -23.13381,12.09251 -0.0891,-0.0574 -1.6843,0.65434 -3.5448,1.58171 -7.11942,3.54871 -9.91485,4.86663 -10.32255,4.86663 -0.36854,0 -5.28963,2.19468 -13.14736,5.86339 -1.29976,0.60684 -3.55957,1.63302 -5.0218,2.28039 -1.46223,0.64737 -4.17083,1.87138 -6.01911,2.72003 -1.84828,0.84864 -3.5092,1.54298 -3.69092,1.54298 -0.18173,0 -2.12568,0.82723 -4.31989,1.83828 -2.19421,1.01106 -5.18584,2.35686 -6.64807,2.99067 -1.46223,0.63382 -3.45618,1.50909 -4.431,1.94505 -3.62227,1.61995 -7.22669,3.17226 -12.16171,5.23764 -7.32047,3.06373 -8.48174,3.5387 -8.81169,3.6041 -0.16247,0.0322 -0.60935,0.25822 -0.99307,0.50224 -0.38372,0.24403 -0.85383,0.19103 -1.04469,-0.11777 z m 74.42652,-63.85853 c 10.1525,-2.27522 18.57542,-10.16225 21.64488,-20.26776 1.00936,-3.32312 1.18668,-5.12338 0.96273,-9.77421 -0.24822,-5.15473 -0.50921,-6.20166 -2.72438,-10.92872 -7.23941,-15.4485 -23.9906,-21.59697 -38.66683,-14.19254 -9.44494,4.76515 -16.97557,16.36822 -16.97557,26.15568 0,9.24436 5.44183,19.34291 13.1974,24.49077 6.40579,4.25192 15.56319,6.0852 22.56177,4.51678 z"
       id="path12"
       transform="scale(0.26458333)" /><path
       style="fill:#0000ff;stroke-width:0.5908"
       d="m 196.68069,526.59974 c -16.86876,-12.52513 -22.78338,-19.03771 -24.98566,-27.51165 -1.21837,-4.68808 -1.74827,-14.41513 -0.97414,-17.88162 0.90794,-4.06566 4.78262,-11.71626 8.01304,-15.82185 5.23793,-6.65698 14.05517,-11.48551 23.55287,-12.89811 8.96593,-1.33352 17.9361,2.00368 31.96533,11.89217 8.44848,5.95489 13.65691,8.85199 15.9142,8.85199 3.26204,0 6.06986,-3.41452 34.00769,-41.35599 11.12589,-15.10971 20.43247,-27.69421 20.68131,-27.96557 0.85882,-0.93657 6.12539,2.37016 22.74318,14.27986 12.39066,8.88017 15.12505,10.15882 22.59828,10.56729 10.25274,0.5604 16.81598,-1.81203 23.09093,-8.34674 8.86537,-9.23236 11.24974,-22.47436 5.98593,-33.2439 -2.41099,-4.93281 -7.80933,-9.88138 -23.61215,-21.64491 -6.98621,-5.20048 -13.07309,-9.79375 -13.52642,-10.20724 -0.69239,-0.63156 0.13756,-2.13367 5.1887,-9.39098 8.17249,-11.74192 12.42353,-17.43778 13.01449,-17.43778 1.16675,0 62.75771,45.42899 77.86556,57.433 5.96356,4.73838 6.59657,5.4221 6.34419,6.85238 -0.1542,0.87384 -0.94787,7.83651 -1.76371,15.4726 -4.78411,44.77777 -7.5727,68.34678 -8.15548,68.92955 -0.13216,0.13217 -3.40324,-1.98418 -7.26905,-4.70298 -8.73327,-6.14208 -14.5873,-9.69466 -17.31569,-10.50824 -3.97795,-1.18618 -11.85977,-1.35468 -15.82383,-0.33828 -5.67175,1.45425 -9.07863,3.47953 -15.45112,9.18523 -3.22344,2.88616 -6.75041,5.52389 -7.83772,5.86163 -3.57467,1.11037 -6.82976,1.37852 -9.14769,0.75357 -1.25511,-0.3384 -7.06751,-3.93091 -12.91643,-7.98335 -18.52251,-12.83339 -23.39284,-15.26538 -30.52281,-15.24149 -12.91879,0.0433 -24.12132,8.61772 -27.90049,21.35507 -1.16011,3.91008 -1.23469,12.45812 -0.15369,17.61676 l 0.77377,3.6925 h -6.61669 c -10.95388,0 -21.65117,2.34321 -33.65333,7.37167 -13.56934,5.68505 -24.6447,13.19156 -37.2662,25.25779 -2.9811,2.84996 -5.54457,5.18173 -5.6966,5.18173 -0.15203,0 -5.16979,-3.63335 -11.15057,-8.07411 z"
       id="path13"
       transform="scale(0.26458333)" /><path
       style="fill:#0000ff;stroke-width:0.5908"
       d="m 528.45183,546.54545 c -5.53423,-4.09233 -20.22381,-14.87056 -32.64352,-23.95163 -12.41971,-9.08106 -22.38108,-16.70404 -22.13637,-16.93995 1.19388,-1.15095 78.51615,-34.7864 79.9681,-34.7864 1.69695,0 19.95247,13.04692 28.23616,20.17992 l 2.50907,2.16052 -1.57457,2.49428 c -6.55809,10.38869 -40.40955,55.26242 -43.5013,57.66564 -0.6042,0.46963 -3.21369,-1.17004 -10.85757,-6.82238 z"
       id="path14"
       transform="scale(0.26458333)" /><path
       style="fill:#008000;stroke-width:0.5908"
       d="M 453.98195,655.11835 C 438.34576,644.44889 414.95041,627.05297 411.1028,623.235 c -3.04108,-3.01765 -4.91197,-6.2474 -5.53132,-9.54879 -0.34831,-1.85663 0.0612,-3.16666 2.85385,-9.12992 4.92767,-10.5222 6.17632,-15.84287 5.17586,-22.05512 -1.29716,-8.05462 -6.36975,-14.95382 -17.81714,-24.23298 -7.52699,-6.10132 -11.91205,-10.55942 -17.55164,-17.84398 -5.54305,-7.15987 -17.19204,-18.6282 -24.63871,-24.2566 -6.31197,-4.77077 -17.50524,-10.43745 -28.65379,-14.5062 -10.9551,-3.99816 -13.07697,-4.97661 -15.60411,-7.19547 -7.42306,-6.51753 -6.33101,-18.11867 2.16417,-22.99061 5.46116,-3.13195 10.42271,-2.10009 19.18662,3.99023 21.31683,14.81376 23.79392,16.26949 29.49837,17.33561 4.06049,0.75888 10.26186,0.30783 14.21356,-1.0338 3.82426,-1.29837 8.04978,-4.09065 13.62551,-9.00391 6.73971,-5.93895 7.95657,-6.57396 12.6027,-6.57658 3.09849,-0.002 4.56221,0.33361 7.0896,1.62437 3.57602,1.82631 18.80369,12.79029 22.48715,16.19084 l 2.39847,2.21426 -0.4244,8.76329 c -0.46588,9.61957 0.0716,12.36208 2.69803,13.76771 2.18972,1.17191 7.09918,0.26089 14.4561,-2.68253 3.77681,-1.51105 7.2169,-2.61308 7.64464,-2.44894 0.72852,0.27956 12.85093,9.07277 55.39484,40.18164 9.66696,7.06866 17.57629,13.13674 17.57629,13.48463 0,1.75226 -66.98676,92.64127 -68.27821,92.64127 -0.35498,0 -3.81426,-2.16228 -7.68729,-4.80507 z"
       id="path15"
       transform="scale(0.26458333)" /><path
       style="fill:#008000;stroke-width:0.5908"
       d="m 348.91124,413.2489 c -1.2756,-0.48434 -3.66834,-1.73294 -5.3172,-2.77468 -4.40544,-2.78333 -23.31574,-16.55643 -25.89448,-18.85995 l -2.21854,-1.98178 7.97853,-11.2252 c 4.3882,-6.17385 8.24231,-11.15947 8.56469,-11.07915 1.27781,0.31839 25.31486,18.38581 28.82937,21.66957 4.70913,4.39995 5.64739,6.17482 5.645,10.67838 -0.005,9.34345 -9.47604,16.65262 -17.58737,13.57281 z"
       id="path16"
       transform="scale(0.26458333)" /><path
       style="fill:#ffeeaa;stroke-width:0.5908"
       d="m 244.44093,452.27207 c -1.86977,-1.12747 -5.32595,-3.34982 -7.68039,-4.93853 -10.1122,-6.82346 -17.49897,-9.34692 -29.09105,-9.93807 -3.90112,-0.19894 -7.40252,-0.52553 -7.78089,-0.72575 -0.77174,-0.40838 3.04266,-5.73603 38.11841,-53.24063 37.6894,-51.04438 77.27375,-103.77442 79.79899,-106.29965 2.728,-2.728 10.49859,-6.63349 15.98015,-8.0316 7.19392,-1.83485 14.85987,-0.87132 22.08488,2.77585 4.69491,2.36999 13.16234,7.65493 15.70088,9.7997 l 2.02661,1.71225 -5.25732,7.33644 c -14.50482,20.24105 -95.39824,130.83149 -113.08011,154.5933 -3.68742,4.95533 -6.86553,9.00901 -7.06247,9.00817 -0.19695,-8.3e-4 -1.88791,-0.92399 -3.75769,-2.05148 z"
       id="path17"
       transform="scale(0.26458333)" /><path
       style="fill:#0000ff;stroke-width:0.5908"
       d="m 424.73911,693.4563 c -13.0424,-9.03045 -35.03019,-25.24372 -39.93571,-29.44764 l -1.87508,-1.6069 4.33615,-9.06727 c 2.38489,-4.987 5.31245,-12.04517 6.5057,-15.68482 l 2.16954,-6.61755 3.64059,3.08292 c 2.00232,1.69561 7.36263,5.85308 11.91178,9.23883 21.88826,16.29051 35.68099,26.73692 38.00961,28.78792 l 2.56162,2.25622 -4.77258,6.7942 c -5.37825,7.6564 -13.0229,17.25228 -13.98502,17.55457 -0.35022,0.11004 -4.20519,-2.27068 -8.5666,-5.29048 z"
       id="path18"
       transform="scale(0.26458333)" /><path
       style="fill:#800000;stroke-width:0.5908"
       d="m 251.08993,640.68843 c 0,-0.39573 21.46836,-41.14851 24.93396,-47.33144 1.70022,-3.03334 1.82241,-3.11421 16.89542,-11.18225 23.25835,-12.44938 34.41461,-18.12702 34.82068,-17.72095 0.20313,0.20313 -1.69276,5.08418 -4.21309,10.84679 -2.52033,5.7626 -7.6866,17.67667 -11.4806,26.47571 l -6.89819,15.99826 -25.80999,11.27452 c -26.93257,11.76489 -28.24819,12.30698 -28.24819,11.63936 z m 47.3606,-25.98916 c 5.07925,-3.56983 7.26433,-11.07824 4.68389,-16.09487 -2.41313,-4.69138 -6.65614,-7.21377 -12.13457,-7.21377 -4.56736,0 -7.6963,1.40371 -9.73546,4.36753 -3.16081,4.59408 -3.77113,9.36069 -1.74927,13.66199 2.38907,5.08254 6.52545,7.47816 12.46224,7.21762 3.2807,-0.14397 4.39441,-0.47749 6.47317,-1.9385 z"
       id="path19"
       transform="scale(0.26458333)" /><path
       style="fill:#008080;stroke-width:0.5908"
       d="m 284.76552,685.50283 c -23.03057,-3.97412 -36.59739,-10.32785 -50.13001,-23.47733 -6.44141,-6.25905 -11.48933,-13.12297 -15.42648,-20.9762 -4.63716,-9.24951 -8.87108,-22.72192 -8.88015,-28.25679 -0.004,-2.1692 0.20968,-2.60682 1.51132,-3.1017 0.8335,-0.3169 3.29271,-0.58202 5.4649,-0.58915 6.78706,-0.0223 10.49791,-2.60642 9.27517,-6.45893 -0.71374,-2.24881 -2.64263,-2.89939 -9.8727,-3.32987 l -6.91017,-0.41144 0.24634,-1.5399 c 0.13548,-0.84694 0.54899,-3.53384 0.9189,-5.97089 1.47929,-9.74585 7.03925,-23.48687 13.32711,-32.93693 4.25213,-6.39057 12.91629,-15.43681 18.93588,-19.77095 5.50075,-3.96057 13.04004,-8.06662 18.80135,-10.2396 6.35371,-2.39641 18.51733,-5.5853 21.30445,-5.5853 2.27304,0 2.559,0.16898 3.14869,1.86056 0.35673,1.02331 0.6486,4.21363 0.6486,7.0896 0,6.27551 0.92839,7.78519 4.59877,7.4782 3.12497,-0.26138 3.65324,-1.71827 3.66372,-10.10403 l 0.009,-6.96867 1.9201,0.31919 c 1.05605,0.17556 4.38155,0.72789 7.38998,1.22741 24.04726,3.99281 47.06078,20.80143 58.54359,42.75907 6.43636,12.30772 11.03673,31.034 7.91794,32.23079 -0.56781,0.21789 -3.63705,0.62241 -6.82054,0.89893 -3.18349,0.27652 -6.14307,0.79731 -6.57682,1.1573 -1.08903,0.90381 -1.60157,3.88627 -0.95854,5.57758 0.71714,1.88622 3.41451,2.73085 8.72107,2.73085 5.66661,0 6.6672,0.53884 6.6672,3.59049 0,6.01326 -3.99544,19.22292 -8.54726,28.25888 -3.78851,7.52065 -9.19837,14.71662 -15.95986,21.2291 -9.52685,9.176 -20.67847,15.84389 -32.80047,19.61239 -5.77138,1.79422 -16.16448,3.63025 -17.54681,3.09981 -0.93902,-0.36034 -1.13924,-1.22053 -1.95782,-8.41097 -0.34963,-3.07124 -0.92215,-5.92923 -1.27227,-6.35109 -0.86933,-1.04749 -4.90236,-0.97337 -5.79862,0.10656 -0.44347,0.53435 -0.84908,3.74631 -1.0445,8.2712 -0.17571,4.06868 -0.48019,7.3614 -0.67663,7.31715 -0.19642,-0.0443 -1.02179,-0.19514 -1.83414,-0.33532 z m -35.55608,-33.49785 c 12.12463,-4.95012 37.78427,-16.03382 51.36006,-22.185 l 10.78219,-4.88539 2.72095,-5.69448 c 8.23254,-17.22931 23.18406,-51.49367 26.09492,-59.80167 2.57311,-7.34399 2.79595,-9.10419 1.33729,-10.56285 -0.66228,-0.66228 -1.64684,-1.20414 -2.18792,-1.20414 -1.26703,0 -26.61968,13.02886 -50.38639,25.89385 l -18.58077,10.05782 -9.67666,18.21065 c -13.16204,24.76985 -22.21823,42.84859 -23.75377,47.41929 -1.51167,4.49962 -1.04597,6.53476 1.49533,6.53476 0.8411,0 5.69874,-1.70228 10.79477,-3.78284 z"
       id="path20"
       transform="scale(0.26458333)" /><path
       style="fill:#808080;stroke-width:0.5908"
       d="m 276.27431,701.53142 c -22.24181,-3.45876 -44.2606,-15.4061 -58.15496,-31.55473 -11.10929,-12.91169 -20.06717,-30.88463 -23.56165,-47.27366 -1.68148,-7.88611 -1.51977,-29.25667 0.28952,-38.26189 7.37859,-36.72474 35.89373,-66.2305 73.93668,-76.50526 6.74454,-1.82159 6.98634,-1.84288 20.70802,-1.82363 15.98101,0.0224 21.33013,0.6474 30.42619,3.55485 17.38108,5.55568 32.72492,15.73156 45.52141,30.18936 14.61756,16.51529 22.0231,34.25661 23.96039,57.40143 3.80457,45.45324 -26.16131,88.40555 -70.72044,101.36885 -12.80608,3.72559 -29.68942,4.88207 -42.40516,2.90468 z m 30.29065,-8.31792 c 27.40733,-4.49591 52.23166,-22.57243 64.91729,-47.27132 7.14089,-13.9033 10.16415,-26.457 10.17096,-42.23374 0.0106,-24.58297 -8.82201,-45.43567 -26.86382,-63.42199 -19.66794,-19.60745 -35.51866,-25.7163 -66.65703,-25.68954 -13.0305,0.0112 -16.24928,0.46125 -25.81368,3.60922 -14.05695,4.62662 -28.5765,14.22546 -38.24324,25.2825 -11.2469,12.86448 -19.10585,28.65913 -21.78836,43.78951 -1.36627,7.70626 -1.3942,26.00697 -0.051,33.43725 2.9515,16.32734 11.13247,32.30237 22.92168,44.7593 21.44785,22.66261 50.98922,32.72858 81.40722,27.73881 z"
       id="path21"
       transform="scale(0.26458333)" /><path
       style="fill:#808080;stroke-width:0.5908"
       d="m 513.24566,419.21966 c -7.13757,-2.93514 -10.48225,-7.32518 -10.09727,-13.25315 0.63659,-9.80235 11.06745,-16.60125 19.14634,-12.4797 3.11661,1.58998 7.38365,6.5523 8.11621,9.43868 0.62942,2.47999 0.2091,6.97615 -0.82296,8.80322 -0.61464,1.0881 -1.37997,2.47697 -1.70072,3.08637 -0.32076,0.6094 -0.80375,1.108 -1.07332,1.108 -0.26957,0 -1.35469,0.65944 -2.41138,1.46541 -1.65603,1.26312 -6.26127,3.28948 -7.37928,3.24697 -0.20286,-0.008 -1.90278,-0.64482 -3.77762,-1.4158 z"
       id="path22"
       transform="scale(0.26458333)" /><path
       style="fill:#f9f9f9;stroke-width:0.5908"
       d="m 511.65556,417.89688 c -5.9576,-3.06998 -7.99957,-5.88765 -7.99661,-11.03439 0.002,-4.12691 1.11949,-6.88048 3.97728,-9.80349 5.42514,-5.54896 11.9719,-5.86202 17.55803,-0.8396 5.4614,4.91027 6.58128,10.00357 3.56411,16.20992 -0.97607,2.0078 -2.12576,3.12335 -4.99847,4.85005 -5.43646,3.26768 -6.82405,3.33847 -12.10434,0.61751 z"
       id="path23"
       transform="scale(0.26458333)" /><path
       style="fill:#f9f9f9;stroke-width:0.5908"
       d="m 289.21776,606.66893 c -1.9756,-2.34787 -1.81481,-4.56121 0.42186,-5.80686 1.45905,-0.81258 1.79035,-0.81258 3.2494,0 2.32393,1.29425 2.4807,3.76257 0.37833,5.95696 -0.89831,0.93764 -1.82579,1.7048 -2.06105,1.7048 -0.23526,0 -1.1301,-0.83471 -1.98854,-1.8549 z"
       id="path24"
       transform="scale(0.26458333)" /></g></svg>
